<svg width="181" height="40" viewBox="0 0 181 40" fill="none" xmlns="http://www.w3.org/2000/svg">
<path d="M180.787 8.36865H175.833V12.9674H180.787V8.36865Z" fill="#9211FF"/>
<path d="M66.5586 8.41504H70.5915L74.7222 28.2916H74.9125L79.1975 10.6218H83.6059L87.9218 28.2916H88.1121L91.9598 8.41504H96.0236L91.2397 32.5406H85.4835L81.4506 16.1208H81.3888L77.3559 32.5406H71.5997L66.5586 8.41504Z" fill="#1B2848"/>
<path d="M102.12 22.9417V25.128H113.38V23.4664C113.38 20.8584 112.644 18.8522 111.178 17.4479C109.707 16.0385 107.603 15.3389 104.872 15.3389C103.076 15.3389 101.543 15.6321 100.263 16.2236C98.9766 16.8255 97.9889 17.6794 97.2894 18.7905C96.5898 19.9016 96.2451 21.2391 96.2451 22.7771V25.344C96.2451 26.9027 96.5743 28.2452 97.2328 29.3564C97.8861 30.4778 98.8326 31.3214 100.062 31.9078C101.297 32.4891 102.783 32.7823 104.537 32.7823C106.852 32.7823 108.761 32.3245 110.257 31.3883C111.76 30.4623 112.732 29.1403 113.164 27.4325L109.383 27.1856C109.177 28.1012 108.678 28.806 107.896 29.3049C107.114 29.8142 106.096 30.0559 104.851 30.0559C103.411 30.0559 102.289 29.6804 101.492 28.9294C100.772 28.2607 100.371 27.3348 100.299 26.1568C100.293 26.0745 100.293 25.9973 100.293 25.9099C100.288 25.8584 100.288 25.7967 100.288 25.7452V25.1177H100.293V22.9315H100.288V22.6794C100.288 22.6331 100.288 22.5817 100.293 22.5302C100.314 21.2031 100.726 20.164 101.523 19.4078C102.351 18.6259 103.498 18.235 104.985 18.235C106.471 18.235 107.557 18.6208 108.39 19.3975C109.224 20.164 109.635 21.2288 109.635 22.5868V22.9315H102.125L102.12 22.9417Z" fill="#1B2848"/>
<path d="M131.862 17.2834C130.596 15.9922 128.786 15.3441 126.456 15.3441C124.83 15.3441 123.41 15.663 122.201 16.3111C122.119 16.3523 122.042 16.3986 121.97 16.4449V19.3976C122.886 18.6774 124.084 18.3122 125.55 18.3122C126.882 18.3122 127.916 18.734 128.642 19.5673C129.377 20.4006 129.737 21.5786 129.737 23.1013V25.1332C129.737 26.6146 129.377 27.772 128.642 28.6208C127.916 29.4696 126.882 29.8862 125.55 29.8862C123.863 29.8862 122.536 29.3976 121.574 28.4305C120.612 27.4583 120.134 26.1311 120.134 24.4439V8.41504H116.101V32.5097H119.583V29.3101C120.236 30.3595 121.121 31.1825 122.237 31.7895C123.467 32.4583 124.902 32.7875 126.553 32.7875C128.848 32.7875 130.622 32.1393 131.888 30.8482C133.148 29.557 133.775 27.7155 133.775 25.3132V22.8132C133.775 20.4109 133.143 18.5642 131.867 17.2782L131.862 17.2834Z" fill="#1B2848"/>
<path d="M152.757 9.99916C151.445 8.83661 149.521 8.26562 147.001 8.26562H137.772V32.7307H142.711V11.7018H145.802C147.222 11.7018 148.261 12.0105 148.914 12.6072C149.573 13.2142 149.902 14.1761 149.902 15.4878V16.3006C149.902 17.5352 149.573 18.4405 148.914 19.0321C148.261 19.6339 147.222 19.9271 145.802 19.9271H144.542V23.3994H146.996C149.496 23.3994 151.409 22.8335 152.731 21.6916C154.058 20.5599 154.717 18.9086 154.717 16.7636V15.0455C154.717 12.8387 154.064 11.1514 152.752 9.99916H152.757Z" fill="#9211FF"/>
<path d="M164.516 32.8231C161.847 32.8231 159.82 32.3962 158.431 31.5423C157.042 30.6883 156.183 29.3303 155.849 27.4785L160.977 27.2933C161.08 28.2089 161.414 28.8879 161.98 29.3252C162.541 29.7624 163.359 29.9836 164.419 29.9836C165.422 29.9836 166.198 29.8087 166.749 29.4538C167.299 29.0988 167.577 28.6204 167.577 28.0135C167.577 27.4733 167.366 27.0567 166.949 26.7635C166.533 26.4702 165.993 26.2491 165.324 26.0896C164.655 25.9353 163.914 25.7912 163.102 25.6678C162.289 25.5443 161.476 25.3849 160.663 25.1997C159.851 25.0093 159.11 24.7367 158.441 24.3715C157.772 24.0062 157.232 23.5073 156.816 22.8694C156.399 22.2316 156.188 21.3931 156.188 20.354C156.188 18.7079 156.893 17.4527 158.297 16.5834C159.707 15.7192 161.795 15.2871 164.568 15.2871C166.255 15.2871 167.695 15.4723 168.884 15.8478C170.072 16.2233 171.008 16.784 171.697 17.5351C172.387 18.2861 172.824 19.2223 173.009 20.3488L167.881 20.57C167.819 19.7984 167.515 19.2069 166.975 18.7851C166.435 18.3684 165.674 18.1575 164.691 18.1575C163.709 18.1575 162.942 18.3324 162.392 18.6873C161.841 19.0423 161.564 19.5309 161.564 20.1585C161.564 20.6986 161.775 21.1256 162.191 21.4239C162.608 21.7274 163.153 21.9538 163.832 22.1132C164.511 22.2676 165.252 22.4116 166.054 22.5351C166.857 22.6585 167.664 22.818 168.477 23.0032C169.29 23.1935 170.031 23.4713 170.699 23.8468C171.368 24.2223 171.908 24.7264 172.325 25.3643C172.742 26.0021 172.953 26.8303 172.953 27.8488C172.953 29.4744 172.238 30.7089 170.813 31.5525C169.383 32.3962 167.284 32.818 164.511 32.818L164.516 32.8231Z" fill="#9211FF"/>
<path d="M180.782 15.6216H175.839V32.5094H180.782V15.6216Z" fill="#9211FF"/>
<path d="M40.3497 3.71997V28.28H30.4008C30.2832 28.28 30.1858 28.3627 30.1655 28.4784L29.5734 31.7107C29.545 31.8595 29.6586 32 29.8086 32H40.6986C42.5196 32 44 30.4955 44 28.6396V3.36451C44 1.50865 42.5237 0 40.6986 0H6.28883C6.02926 0 6.01709 0.210798 5.91164 0.516662C5.78591 0.880393 5.04775 3.1165 5.01125 3.28183C4.99097 3.3645 4.96663 3.6869 5.24649 3.6869L40.3457 3.71997H40.3497Z" fill="#FFAA24"/>
<path d="M35 37.5484V39.8528C35 39.9342 34.9322 40 34.8483 40H12.1477C12.0639 40 12 39.9342 12 39.8528V37.5484C12 37.4671 12.0678 37.4051 12.1477 37.4051H21.0675V35.1278C21.0675 35.0581 21.1274 35 21.1992 35H25.7928C25.8647 35 25.9245 35.0581 25.9245 35.1278V37.4051H34.8444C34.9282 37.4051 34.996 37.4709 34.996 37.5484H35Z" fill="#FF00FF"/>
<path d="M31.293 6.28137L27.242 28.0538L26.5818 31.5923C26.5654 31.6867 26.4834 31.7482 26.3932 31.7482H20.5749C20.4847 31.7482 20.4068 31.6908 20.3863 31.6005L15.9129 14.2605H15.8473L11.7962 31.6005C11.7757 31.6908 11.6978 31.7482 11.6076 31.7482H5.78935C5.69504 31.7482 5.61714 31.6867 5.59663 31.5923L3.82122 23.5681C3.78841 23.4205 3.89912 23.2852 4.05083 23.2852H7.84768C7.95839 23.2852 8.0568 23.3631 8.0814 23.4738L8.90555 27.2215H9.10646L13.4076 8.54882C13.4281 8.46272 13.5061 8.40121 13.5963 8.40121H17.9836C18.0779 8.40121 18.1558 8.46272 18.1763 8.54882L22.9654 27.2215H23.1663L26.9754 6.21167C26.9918 6.12146 27.0739 6.05176 27.1641 6.05176H31.0962C31.2192 6.05176 31.3176 6.16656 31.293 6.28547V6.28137Z" fill="#1B2848"/>
<path d="M4.28474 6.20366C4.26424 6.11345 4.18634 6.04785 4.09203 6.04785H0.192673C0.0696649 6.04785 -0.0205406 6.16266 0.00406099 6.28156L0.799511 9.8734C0.824113 9.98411 0.922519 10.062 1.03323 10.062H4.84238C4.99409 10.062 5.1007 9.9226 5.072 9.77909L4.28474 6.20366Z" fill="#9211FF"/>
</svg>
