<?xml version="1.0" encoding="UTF-8"?>
<!-- Generator: Adobe Illustrator 25.4.1, SVG Export Plug-In . SVG Version: 6.00 Build 0)  -->
<svg xmlns="http://www.w3.org/2000/svg" xmlns:xlink="http://www.w3.org/1999/xlink" version="1.1" id="Capa_1" x="0px" y="0px" viewBox="0 0 484.324 484.324" style="enable-background:new 0 0 484.324 484.324;" xml:space="preserve" width="512" height="512">
<g>
	<path d="M59.627,202.316l-6.608-1.425h-7.078c0.001-0.516,0.055-1.031,0.159-1.536c16.718-76.672,76.613-136.554,153.289-153.254   c0.482-0.105,0.974-0.159,1.467-0.159v7.092l1.425,6.594C130.911,75.188,75.17,130.942,59.627,202.316z"/>
	<path d="M283.468,438.383v-7.092l-1.425-6.594c71.371-15.56,127.111-71.314,142.654-142.689l6.608,1.425l7.078-0.035v0.069   c-0.001,0.493-0.054,0.985-0.159,1.467c-16.706,76.686-76.603,136.583-153.289,153.289   C284.453,438.329,283.961,438.382,283.468,438.383z"/>
	<path d="M200.925,438.383h-0.069c-0.493-0.001-0.985-0.054-1.467-0.159c-76.686-16.706-136.583-76.603-153.289-153.289   c-0.105-0.482-0.159-0.974-0.159-1.467h7.092l6.594-1.425c15.56,71.371,71.314,127.111,142.689,142.654l-1.425,6.608   L200.925,438.383z"/>
	<path d="M424.697,202.316c-15.548-71.384-71.305-127.14-142.689-142.689l1.425-6.608l-0.035-7.078h0.069   c0.493,0.001,0.985,0.054,1.467,0.159c76.686,16.706,136.583,76.603,153.289,153.289c0.105,0.482,0.159,0.974,0.159,1.467h-7.092   L424.697,202.316z"/>
	<path d="M242.162,96.865c-26.749,0-48.432-21.684-48.432-48.432S215.414,0,242.162,0s48.432,21.684,48.432,48.432   C290.564,75.168,268.898,96.834,242.162,96.865z M242.162,13.838c-19.106,0-34.595,15.489-34.595,34.595   s15.489,34.595,34.595,34.595s34.595-15.489,34.595-34.595C276.734,29.336,261.259,13.861,242.162,13.838z"/>
	<path d="M242.162,484.324c-26.749,0-48.432-21.684-48.432-48.432c0-26.749,21.684-48.432,48.432-48.432   s48.432,21.684,48.432,48.432C290.564,462.628,268.898,484.294,242.162,484.324z M242.162,401.297   c-19.106,0-34.595,15.489-34.595,34.595c0,19.106,15.489,34.595,34.595,34.595s34.595-15.489,34.595-34.595   C276.734,416.795,261.259,401.32,242.162,401.297z"/>
	<path d="M435.892,290.595c-26.749,0-48.432-21.684-48.432-48.432s21.684-48.432,48.432-48.432   c26.748,0,48.432,21.684,48.432,48.432C484.294,268.898,462.628,290.564,435.892,290.595z M435.892,207.568   c-19.106,0-34.595,15.489-34.595,34.595s15.489,34.595,34.595,34.595c19.106,0,34.595-15.489,34.595-34.595   C470.464,223.066,454.988,207.59,435.892,207.568z"/>
	<path d="M48.432,290.595C21.684,290.595,0,268.911,0,242.162s21.684-48.432,48.432-48.432s48.432,21.684,48.432,48.432   C96.834,268.898,75.168,290.564,48.432,290.595z M48.432,207.568c-19.106,0-34.595,15.489-34.595,34.595   s15.489,34.595,34.595,34.595s34.595-15.489,34.595-34.595C83.004,223.066,67.529,207.59,48.432,207.568z"/>
	<path d="M338.806,359.694H145.519c-3.821,0-6.919-3.098-6.919-6.919v-42.932c-0.03-8.905,4.848-17.103,12.689-21.324   c21.717-10.007,44.323-17.962,67.522-23.76l3.418,13.409c-22.099,5.562-43.651,13.106-64.394,22.542   c-3.339,1.809-5.412,5.308-5.397,9.105v36.013h179.449v-35.985c0.015-3.797-2.058-7.296-5.397-9.105   c-20.741-9.435-42.291-16.98-64.387-22.542l3.418-13.409c23.195,5.789,45.799,13.734,67.515,23.732   c7.832,4.217,12.709,12.401,12.689,21.296v42.932c0.015,3.821-3.07,6.931-6.891,6.947   C338.824,359.694,338.815,359.694,338.806,359.694z"/>
	<path d="M242.162,285.191c-0.175,0-0.348,0-0.519,0c-16.79-1.283-32.161-9.902-42.012-23.559c-1.656-2.171-3.195-4.43-4.608-6.767   c-3.975-6.605-6.909-13.784-8.697-21.283c-6.414-3.693-10.244-10.643-9.942-18.038c-0.295-6.752,2.77-13.212,8.185-17.256   l-0.47-4.497c0-0.291,0-0.588,0-0.886c-7.182-7.99-10.711-18.609-9.742-29.309c0.425-3.798,3.848-6.532,7.645-6.107   c1.365,0.153,2.654,0.708,3.702,1.596c1.557,0.913,6.76-0.81,13.367-10.378c9.756-14.246,34.678-27.357,54.784-23.421   c10.288,1.833,18.883,8.882,22.694,18.612c6.301-1.45,12.922-0.16,18.218,3.549c10.627,7.964,13.374,25.731,8.379,54.286   c3.017,3.992,4.698,8.835,4.802,13.838c0.302,7.384-3.516,14.326-9.915,18.024c-1.791,7.508-4.731,14.694-8.718,21.303   c-1.426,2.357-2.983,4.633-4.663,6.815c-9.829,13.642-25.177,22.25-41.942,23.524C242.524,285.207,242.342,285.191,242.162,285.191   z M197.757,201.05c-0.559,3.556-2.562,6.723-5.535,8.752c-1.448,1.537-2.17,3.619-1.986,5.722c-0.188,2.12,0.635,4.205,2.221,5.625   c3.681,1.722,6.369,5.037,7.293,8.995c1.955,8.383,5.672,16.253,10.904,23.088c7.326,10.377,18.854,16.997,31.509,18.093   c12.645-1.088,24.165-7.701,31.481-18.072c1.376-1.795,2.654-3.663,3.826-5.597c3.27-5.429,5.672-11.335,7.12-17.505   c0.892-3.939,3.538-7.253,7.182-8.995c1.646-1.4,2.508-3.514,2.311-5.667c-0.122-2.464-1.19-4.787-2.982-6.483   c-1.618-1.07-2.712-2.769-3.017-4.684c-1.195-7.623-6.273-14.075-13.402-17.027c-7.575-3.296-16.312-2.465-23.13,2.2   c-5.545,3.784-11.501,6.927-17.754,9.368c-8.182,3.365-17.032,4.786-25.856,4.151C204.483,202.743,201.067,202.084,197.757,201.05z    M188.686,172.855c0.836,4.542,3.223,8.653,6.753,11.631c3.983,2.899,8.742,4.542,13.665,4.719   c6.712,0.468,13.44-0.636,19.65-3.224c5.283-2.072,10.319-4.727,15.014-7.915c10.728-7.354,24.487-8.661,36.407-3.459   c4.238,1.82,8.097,4.421,11.375,7.666c0.92-17.415-3.376-22.445-5.065-23.725c-4.151-3.162-11.285,0.221-11.354,0.256   c-3.44,1.708-7.613,0.304-9.32-3.135c-0.25-0.503-0.438-1.035-0.56-1.583c-0.829-7.624-6.55-13.806-14.087-15.222   c-15.679-1.339-30.979,5.306-40.704,17.678c-4.532,8.214-12.321,14.133-21.449,16.301L188.686,172.855z"/>
	<rect x="286.49" y="317.565" transform="matrix(1 -0.0016 0.0016 1 -0.5494 0.4818)" width="13.838" height="35.127"/>
	<rect x="184.346" y="317.746" transform="matrix(1 -0.0016 0.0016 1 -0.5498 0.3142)" width="13.838" height="35.12"/>
</g>















</svg>
