<svg height="512" viewBox="0 0 48 48" width="512" xmlns="http://www.w3.org/2000/svg"><g id="_11_-_20" data-name="11 - 20"><g id="Research"><path d="m43.018 42.784-3.9-3.912a9.015 9.015 0 1 0 -4.243 4.242l3.911 3.9a2.994 2.994 0 1 0 4.236-4.233zm-16.968-2.834a7 7 0 1 1 9.9 0 7.007 7.007 0 0 1 -9.9 0zm15.55 5.65a1 1 0 0 1 -1.406 0l-3.581-3.573a8.489 8.489 0 0 0 1.414-1.413l3.573 3.586a.991.991 0 0 1 0 1.406z"/><path d="m25 44h-13a3 3 0 0 1 -3-3v-34a3 3 0 0 1 3-3h17.38a2.973 2.973 0 0 1 .62.067v5.933a3 3 0 0 0 3 3h5.923a3 3 0 0 1 .077.651v13.349a1 1 0 0 0 2 0v-13.349a4.975 4.975 0 0 0 -1.456-3.527l-6.62-6.651a4.965 4.965 0 0 0 -3.544-1.473h-17.38a5.006 5.006 0 0 0 -5 5v34a5.006 5.006 0 0 0 5 5h13a1 1 0 0 0 0-2zm12.594-33h-4.594a1 1 0 0 1 -1-1v-4.62z"/><path d="m14 13h11a1 1 0 0 0 0-2h-11a1 1 0 0 0 0 2z"/><path d="m34 17h-17a1 1 0 0 0 0 2h17a1 1 0 0 0 0-2z"/><path d="m35 23a1 1 0 0 0 -1-1h-20a1 1 0 0 0 0 2h20a1 1 0 0 0 1-1z"/><path d="m21 28a1 1 0 0 0 -1-1h-6a1 1 0 0 0 0 2h6a1 1 0 0 0 1-1z"/><path d="m14 34h4a1 1 0 0 0 0-2h-4a1 1 0 0 0 0 2z"/><path d="m14 39h5a1 1 0 0 0 0-2h-5a1 1 0 0 0 0 2z"/><path d="m31 38a3 3 0 0 1 -3-3 1 1 0 0 0 -2 0 5.006 5.006 0 0 0 5 5 1 1 0 0 0 0-2z"/></g></g></svg>