<?xml version="1.0" encoding="UTF-8" standalone="no"?>
<!-- Created with Inkscape (http://www.inkscape.org/) -->

<svg
   version="1.1"
   id="svg2925"
   xml:space="preserve"
   width="682.66669"
   height="682.66669"
   viewBox="0 0 682.66669 682.66669"
   xmlns="http://www.w3.org/2000/svg"
   xmlns:svg="http://www.w3.org/2000/svg"><defs
     id="defs2929"><clipPath
       clipPathUnits="userSpaceOnUse"
       id="clipPath2939"><path
         d="M 0,512 H 512 V 0 H 0 Z"
         id="path2937" /></clipPath></defs><g
     id="g2931"
     transform="matrix(1.3333333,0,0,-1.3333333,0,682.66667)"><g
       id="g2933"><g
         id="g2935"
         clip-path="url(#clipPath2939)"><g
           id="g2941"
           transform="translate(271,97.0703)"><path
             d="M 0,0 C -4.904,0.281 -9.91,0.43 -15,0.43 -20.09,0.43 -25.096,0.281 -30,0"
             style="fill:none;stroke:#000000;stroke-width:15;stroke-linecap:round;stroke-linejoin:round;stroke-miterlimit:10;stroke-dasharray:none;stroke-opacity:1"
             id="path2943" /></g><g
           id="g2945"
           transform="translate(173.4995,81.7246)"><path
             d="m 0,0 c -16.208,-7.863 -26,-18.069 -26,-29.225 0,-24.852 48.578,-45 108.5,-45 59.923,0 108.5,20.148 108.5,45 0,16.954 -22.609,31.715 -56,39.388"
             style="fill:none;stroke:#000000;stroke-width:15;stroke-linecap:round;stroke-linejoin:round;stroke-miterlimit:10;stroke-dasharray:none;stroke-opacity:1"
             id="path2947" /></g><g
           id="g2949"
           transform="translate(308.5,354.5)"><path
             d="M 0,0 V -295.25 C 0,-305.605 -8.395,-314 -18.75,-314 c -10.355,0 -18.75,8.395 -18.75,18.75 V -127 h -30 v -168.25 c 0,-10.355 -8.395,-18.75 -18.75,-18.75 -10.355,0 -18.75,8.395 -18.75,18.75 V 0"
             style="fill:none;stroke:#000000;stroke-width:15;stroke-linecap:round;stroke-linejoin:round;stroke-miterlimit:10;stroke-dasharray:none;stroke-opacity:1"
             id="path2951" /></g><g
           id="g2953"
           transform="translate(300.6709,459.5)"><path
             d="m 0,0 c 0,-24.853 -20.147,-45 -45,-45 -24.853,0 -45,20.147 -45,45 0,24.853 20.147,45 45,45 C -20.147,45 0,24.853 0,0 Z"
             style="fill:none;stroke:#000000;stroke-width:15;stroke-linecap:round;stroke-linejoin:round;stroke-miterlimit:10;stroke-dasharray:none;stroke-opacity:1"
             id="path2955" /></g><g
           id="g2957"
           transform="translate(203.4995,227.5)"><path
             d="m 0,0 c 0,-8.284 -6.715,-15 -15,-15 -8.284,0 -15,6.716 -15,15 v 127 c 0,16.5 13.5,30 30,30 h 105 c 16.5,0 30,-13.5 30,-30 V 0 c 0,-8.284 -6.715,-15 -15,-15 -8.284,0 -15,6.716 -15,15"
             style="fill:none;stroke:#000000;stroke-width:15;stroke-linecap:round;stroke-linejoin:round;stroke-miterlimit:10;stroke-dasharray:none;stroke-opacity:1"
             id="path2959" /></g></g></g></g></svg>
