<?xml version="1.0" encoding="UTF-8"?>
<svg xmlns="http://www.w3.org/2000/svg" xmlns:xlink="http://www.w3.org/1999/xlink" version="1.1" id="Capa_1" x="0px" y="0px" viewBox="0 0 512 512" style="enable-background:new 0 0 512 512;" xml:space="preserve" width="512" height="512">
<g>
	<path style="fill:none;stroke:#000000;stroke-width:15;stroke-linecap:round;stroke-linejoin:round;stroke-miterlimit:10;" d="&#10;&#9;&#9;M354.61,490.45c-10.91,8.79-24.79,14.05-39.89,14.05c-32.76,0-59.72-24.74-63.24-56.55c-3.53,31.81-30.49,56.55-63.24,56.55&#10;&#9;&#9;c-35.15,0-63.65-28.49-63.65-63.64c0-1.19,0.04-2.35,0.11-3.52v-0.01c-3.31,1.08-6.83,1.67-10.49,1.67&#10;&#9;&#9;c-16.14,0-29.63-11.32-32.97-26.45c-26.03-3.89-45.99-26.34-45.99-53.44c0-11.09,3.35-21.38,9.07-29.96v-0.01&#10;&#9;&#9;c-14.12-8.74-24.85-22.45-29.72-38.69"/>
	<path style="fill:none;stroke:#000000;stroke-width:15;stroke-linecap:round;stroke-linejoin:round;stroke-miterlimit:10;" d="&#10;&#9;&#9;M458.63,329.14c19.58-12.11,32.62-33.77,32.62-58.48c0-23.02-11.32-43.38-28.69-55.85c0-0.01,0.01-0.01,0.01-0.02&#10;&#9;&#9;c3.28-6.97,5.13-14.77,5.13-22.99c0-23.4-14.87-43.32-35.67-50.84c1.11-3.34,1.72-6.91,1.72-10.63c0-18.65-15.12-33.77-33.77-33.77&#10;&#9;&#9;c-2.28,0-4.51,0.22-6.66,0.66c0-0.23,0.01-0.44,0.01-0.66c0-29.85-24.19-54.05-54.04-54.05c-1.38,0-2.75,0.06-4.11,0.16&#10;&#9;&#9;c-2.53-8.2-7.11-15.49-13.14-21.27"/>
	<path style="fill:none;stroke:#000000;stroke-width:15;stroke-linecap:round;stroke-linejoin:round;stroke-miterlimit:10;" d="&#10;&#9;&#9;M289.9,7.56c-0.8-0.04-1.61-0.06-2.42-0.06c-14.15,0-26.92,5.9-36,15.36C242.39,13.4,229.62,7.5,215.47,7.5&#10;&#9;&#9;c-22.43,0-41.41,14.8-47.7,35.17c-1.36-0.1-2.73-0.16-4.11-0.16c-29.85,0-54.04,24.2-54.04,54.05c0,0.22,0.01,0.42,0.02,0.65v0.01&#10;&#9;&#9;c-2.16-0.44-4.38-0.66-6.66-0.66c-18.66,0-33.78,15.12-33.78,33.77c0,3.72,0.61,7.29,1.72,10.63&#10;&#9;&#9;c-20.8,7.52-35.67,27.44-35.67,50.84c0,8.22,1.85,16.02,5.13,22.99c0,0.01,0.01,0.01,0.01,0.02&#10;&#9;&#9;c-13.43,9.64-23.24,23.99-26.99,40.64"/>
	<path style="fill:none;stroke:#000000;stroke-width:15;stroke-linecap:round;stroke-linejoin:round;stroke-miterlimit:10;" d="&#10;&#9;&#9;M40.383,214.793c9.099-6.534,19.86-10.901,31.526-12.343"/>
	<path style="fill:none;stroke:#000000;stroke-width:15;stroke-linecap:round;stroke-linejoin:round;stroke-miterlimit:10;" d="&#10;&#9;&#9;M109.637,97.212c11.161,2.232,20.336,9.966,24.578,20.253"/>
	<path style="fill:none;stroke:#000000;stroke-width:15;stroke-linecap:round;stroke-linejoin:round;stroke-miterlimit:10;" d="&#10;&#9;&#9;M88.801,383.62c-5.14,5.926-8.251,13.66-8.251,22.12c0,2.332,0.236,4.608,0.686,6.807"/>
	<path style="fill:none;stroke:#000000;stroke-width:15;stroke-linecap:round;stroke-linejoin:round;stroke-miterlimit:10;" d="&#10;&#9;&#9;M124.699,437.339c7.208-2.354,13.35-7.066,17.512-13.226"/>
	<path style="fill:none;stroke:#000000;stroke-width:15;stroke-linecap:round;stroke-linejoin:round;stroke-miterlimit:10;" d="&#10;&#9;&#9;M71.909,338.872c-10.027-1.24-19.385-4.64-27.594-9.719"/>
	
		<line style="fill:none;stroke:#000000;stroke-width:15;stroke-linecap:round;stroke-linejoin:round;stroke-miterlimit:10;" x1="251.48" y1="447.95" x2="251.48" y2="422.85"/>
	
		<line style="fill:none;stroke:#000000;stroke-width:15;stroke-linecap:round;stroke-linejoin:round;stroke-miterlimit:10;" x1="251.48" y1="387.85" x2="251.48" y2="22.86"/>
	<path style="fill:none;stroke:#000000;stroke-width:15;stroke-linecap:round;stroke-linejoin:round;stroke-miterlimit:10;" d="&#10;&#9;&#9;M167.769,42.671l-0.079,0.321c-2.617,10.682-0.862,21.966,4.876,31.348l0,0"/>
	<path style="fill:none;stroke:#000000;stroke-width:15;stroke-linecap:round;stroke-linejoin:round;stroke-miterlimit:10;" d="&#10;&#9;&#9;M142.349,216.015c2.193,6.875,2.93,14.334,1.893,21.96c-3.731,27.429-28.991,46.641-56.42,42.911"/>
	<path style="fill:none;stroke:#000000;stroke-width:15;stroke-linecap:round;stroke-linejoin:round;stroke-miterlimit:10;" d="&#10;&#9;&#9;M250.85,258.515c-2.81,4.004-6.533,7.461-11.075,10.029c-16.333,9.238-37.062,3.487-46.3-12.846"/>
	<path style="fill:none;stroke:#000000;stroke-width:15;stroke-linecap:round;stroke-linejoin:round;stroke-miterlimit:10;" d="&#10;&#9;&#9;M252.102,258.515c2.81,4.004,6.533,7.461,11.075,10.029c16.332,9.238,37.062,3.487,46.3-12.846"/>
	<path style="fill:none;stroke:#000000;stroke-width:15;stroke-linecap:round;stroke-linejoin:round;stroke-miterlimit:10;" d="&#10;&#9;&#9;M133.216,264.818l8.466,5.925c9.298,6.507,15.528,16.245,17.726,27.012"/>
	<path style="fill:none;stroke:#000000;stroke-width:15;stroke-linecap:round;stroke-linejoin:round;stroke-miterlimit:10;" d="&#10;&#9;&#9;M200.315,208.622c0.281-5.771-0.685-11.693-3.058-17.38c-8.535-20.453-32.034-30.116-52.487-21.581"/>
	<path style="fill:none;stroke:#000000;stroke-width:15;stroke-linecap:round;stroke-linejoin:round;stroke-miterlimit:10;" d="&#10;&#9;&#9;M201.159,75.713c-3.272-1.841-6.996-3-10.991-3.274c-14.369-0.984-26.814,9.867-27.798,24.235"/>
	<path style="fill:none;stroke:#000000;stroke-width:15;stroke-linecap:round;stroke-linejoin:round;stroke-miterlimit:10;" d="&#10;&#9;&#9;M83.325,180.904c-2.679,2.63-4.83,5.883-6.205,9.644c-4.947,13.526,2.009,28.501,15.535,33.448"/>
	<path style="fill:none;stroke:#000000;stroke-width:15;stroke-linecap:round;stroke-linejoin:round;stroke-miterlimit:10;" d="&#10;&#9;&#9;M183.2,172.744l5.33-6.327c8.425-10,10.555-23.87,5.52-35.938l0,0"/>
	<path style="fill:none;stroke:#000000;stroke-width:15;stroke-linecap:round;stroke-linejoin:round;stroke-miterlimit:10;" d="&#10;&#9;&#9;M123.098,350.362c4.815,5.797,10.964,10.64,18.257,14.016c26.232,12.145,57.342,0.725,69.487-25.507"/>
	<path style="fill:none;stroke:#000000;stroke-width:15;stroke-linecap:round;stroke-linejoin:round;stroke-miterlimit:10;" d="&#10;&#9;&#9;M171.174,369.776l0.451,10.781c0.713,17.04,10.888,32.254,26.365,39.42l0,0"/>
	<path style="fill:none;stroke:#000000;stroke-width:15;stroke-linecap:round;stroke-linejoin:round;stroke-miterlimit:10;" d="&#10;&#9;&#9;M462.569,214.793c-9.099-6.534-19.86-10.901-31.526-12.343"/>
	<path style="fill:none;stroke:#000000;stroke-width:15;stroke-linecap:round;stroke-linejoin:round;stroke-miterlimit:10;" d="&#10;&#9;&#9;M393.315,97.212c-11.161,2.232-20.336,9.966-24.578,20.253"/>
	<path style="fill:none;stroke:#000000;stroke-width:15;stroke-linecap:round;stroke-linejoin:round;stroke-miterlimit:10;" d="&#10;&#9;&#9;M335.183,42.671l0.079,0.321c2.617,10.682,0.862,21.966-4.876,31.348v0"/>
	<path style="fill:none;stroke:#000000;stroke-width:15;stroke-linecap:round;stroke-linejoin:round;stroke-miterlimit:10;" d="&#10;&#9;&#9;M360.603,216.015c-2.193,6.875-2.93,14.334-1.893,21.96c3.731,27.429,28.991,46.641,56.42,42.911"/>
	<path style="fill:none;stroke:#000000;stroke-width:15;stroke-linecap:round;stroke-linejoin:round;stroke-miterlimit:10;" d="&#10;&#9;&#9;M369.736,264.818l-8.466,5.925c-9.299,6.507-15.529,16.246-17.727,27.013"/>
	<path style="fill:none;stroke:#000000;stroke-width:15;stroke-linecap:round;stroke-linejoin:round;stroke-miterlimit:10;" d="&#10;&#9;&#9;M302.637,208.622c-0.281-5.771,0.685-11.693,3.058-17.38c8.535-20.453,32.034-30.116,52.487-21.581"/>
	<path style="fill:none;stroke:#000000;stroke-width:15;stroke-linecap:round;stroke-linejoin:round;stroke-miterlimit:10;" d="&#10;&#9;&#9;M301.793,75.713c3.272-1.841,6.996-3,10.991-3.274c14.369-0.984,26.814,9.867,27.798,24.235"/>
	<path style="fill:none;stroke:#000000;stroke-width:15;stroke-linecap:round;stroke-linejoin:round;stroke-miterlimit:10;" d="&#10;&#9;&#9;M419.627,180.904c2.679,2.63,4.83,5.883,6.205,9.644c4.947,13.526-2.009,28.501-15.535,33.448"/>
	<path style="fill:none;stroke:#000000;stroke-width:15;stroke-linecap:round;stroke-linejoin:round;stroke-miterlimit:10;" d="&#10;&#9;&#9;M319.753,172.744l-5.33-6.327c-8.425-10-10.555-23.87-5.52-35.938v0"/>
	<path style="fill:none;stroke:#000000;stroke-width:15;stroke-linecap:round;stroke-linejoin:round;stroke-miterlimit:10;" d="&#10;&#9;&#9;M319.365,365.15c-11.628-4.872-21.541-13.936-27.255-26.278"/>
	<path style="fill:none;stroke:#000000;stroke-width:15;stroke-linecap:round;stroke-linejoin:round;stroke-miterlimit:10;" d="&#10;&#9;&#9;M483.1,461.34c9.8-14.85,15.5-32.65,15.5-51.78c0-52.03-42.18-94.21-94.21-94.21s-94.22,42.18-94.22,94.21&#10;&#9;&#9;c0,52.04,42.19,94.22,94.22,94.22c20.26,0,39.02-6.39,54.38-17.27"/>
	
		<polygon style="fill:none;stroke:#000000;stroke-width:15;stroke-linecap:round;stroke-linejoin:round;stroke-miterlimit:10;" points="&#10;&#9;&#9;353.674,392.336 387.16,392.336 387.16,358.85 421.617,358.85 421.617,392.336 455.103,392.336 455.103,426.792 421.617,426.792 &#10;&#9;&#9;421.617,460.279 387.16,460.279 387.16,426.792 353.674,426.792 &#9;"/>
</g>















</svg>
