<svg version="1.1" id="Capa_1" xmlns="http://www.w3.org/2000/svg" xmlns:xlink="http://www.w3.org/1999/xlink" x="0px" y="0px" viewBox="0 0 512 512" style="enable-background:new 0 0 512 512;" xml:space="preserve">
<g>
	<g>
		<g>
			<path style="fill:none;stroke:#000000;stroke-width:15;stroke-linecap:round;stroke-linejoin:round;stroke-miterlimit:10;" d="&#10;&#9;&#9;&#9;&#9;M38.414,433.405V12.267c0-2.633-2.369-4.767-5.291-4.767H12.791C9.869,7.5,7.5,9.634,7.5,12.267v491.949"/>
			
				<line style="fill:none;stroke:#000000;stroke-width:15;stroke-linecap:round;stroke-linejoin:round;stroke-miterlimit:10;" x1="38.414" y1="504.216" x2="38.414" y2="470.094"/>
			<g>
				
					<line style="fill:none;stroke:#000000;stroke-width:15;stroke-linecap:round;stroke-linejoin:round;stroke-miterlimit:10;" x1="424.285" y1="118.481" x2="354.228" y2="118.571"/>
				<path style="fill:none;stroke:#000000;stroke-width:15;stroke-linecap:round;stroke-linejoin:round;stroke-miterlimit:10;" d="&#10;&#9;&#9;&#9;&#9;&#9;M358.249,439.888H504.5c-23.987-100.696-24.376-222.415,0-321.511l-45.361,0.058"/>
				<path style="fill:none;stroke:#000000;stroke-width:15;stroke-linecap:round;stroke-linejoin:round;stroke-miterlimit:10;" d="&#10;&#9;&#9;&#9;&#9;&#9;M38.425,54.519c0,0,232.188-37.236,314.726,0.666v88.909"/>
				<path style="fill:none;stroke:#000000;stroke-width:15;stroke-linecap:round;stroke-linejoin:round;stroke-miterlimit:10;" d="&#10;&#9;&#9;&#9;&#9;&#9;M209.202,360.413c-97.756,3.524-170.777,21.929-170.777,21.929"/>
			</g>
		</g>
		<path style="fill:none;stroke:#000000;stroke-width:15;stroke-linecap:round;stroke-linejoin:round;stroke-miterlimit:10;" d="&#10;&#9;&#9;&#9;M199.99,89.949c58.626-2.655,118.835,0.769,153.16,20.278"/>
		<path style="fill:none;stroke:#000000;stroke-width:15;stroke-linecap:round;stroke-linejoin:round;stroke-miterlimit:10;" d="&#10;&#9;&#9;&#9;M38.425,109.402c0,0,57.702-11.453,125.802-17.128"/>
		<path style="fill:none;stroke:#000000;stroke-width:15;stroke-linecap:round;stroke-linejoin:round;stroke-miterlimit:10;" d="&#10;&#9;&#9;&#9;M38.425,163.859c0,0,82.506-16.376,166.637-19.668"/>
		<path style="fill:none;stroke:#000000;stroke-width:15;stroke-linecap:round;stroke-linejoin:round;stroke-miterlimit:10;" d="&#10;&#9;&#9;&#9;M38.425,218.316c0,0,61.398-12.186,132.272-17.647"/>
		<path style="fill:none;stroke:#000000;stroke-width:15;stroke-linecap:round;stroke-linejoin:round;stroke-miterlimit:10;" d="&#10;&#9;&#9;&#9;M38.425,272.772c0,0,60.345-11.977,130.442-17.505"/>
		<path style="fill:none;stroke:#000000;stroke-width:15;stroke-linecap:round;stroke-linejoin:round;stroke-miterlimit:10;" d="&#10;&#9;&#9;&#9;M38.425,327.229c0,0,81.914-16.258,165.729-19.632"/>
		
			<line style="fill:none;stroke:#000000;stroke-width:15;stroke-linecap:round;stroke-linejoin:round;stroke-miterlimit:10;" x1="493.535" y1="170.76" x2="373.267" y2="170.76"/>
		
			<line style="fill:none;stroke:#000000;stroke-width:15;stroke-linecap:round;stroke-linejoin:round;stroke-miterlimit:10;" x1="487.573" y1="224.844" x2="373.268" y2="224.844"/>
		
			<line style="fill:none;stroke:#000000;stroke-width:15;stroke-linecap:round;stroke-linejoin:round;stroke-miterlimit:10;" x1="484.822" y1="278.928" x2="371.089" y2="278.928"/>
		
			<line style="fill:none;stroke:#000000;stroke-width:15;stroke-linecap:round;stroke-linejoin:round;stroke-miterlimit:10;" x1="487.573" y1="333.012" x2="353.662" y2="333.012"/>
		
			<line style="fill:none;stroke:#000000;stroke-width:15;stroke-linecap:round;stroke-linejoin:round;stroke-miterlimit:10;" x1="493.535" y1="387.095" x2="369.255" y2="387.095"/>
	</g>
	<g>
		<g>
			<path style="fill:none;stroke:#000000;stroke-width:15;stroke-linecap:round;stroke-linejoin:round;stroke-miterlimit:10;" d="&#10;&#9;&#9;&#9;&#9;M329.577,166.531c0-11.782,9.625-21.332,21.498-21.332h0c11.873,0,21.449,9.551,21.449,21.332v45.337&#10;&#9;&#9;&#9;&#9;c0,11.782-9.576,21.332-21.449,21.332h0c-11.873,0-21.498-9.551-21.498-21.332"/>
			<path style="fill:none;stroke:#000000;stroke-width:15;stroke-linecap:round;stroke-linejoin:round;stroke-miterlimit:10;" d="&#10;&#9;&#9;&#9;&#9;M286.582,210.457v2.755c0,11.782,9.625,21.332,21.498,21.332h0c11.873,0,21.498-9.551,21.498-21.332V154.44&#10;&#9;&#9;&#9;&#9;c0-11.782-9.625-21.332-21.498-21.332h0c-11.873,0-21.498,9.551-21.498,21.332"/>
			<path style="fill:none;stroke:#000000;stroke-width:15;stroke-linecap:round;stroke-linejoin:round;stroke-miterlimit:10;" d="&#10;&#9;&#9;&#9;&#9;M200.253,182.095v-22.302c0-11.782,9.701-21.332,21.667-21.332h0c11.966,0,21.667,9.551,21.667,21.332"/>
			<path style="fill:none;stroke:#000000;stroke-width:15;stroke-linecap:round;stroke-linejoin:round;stroke-miterlimit:10;" d="&#10;&#9;&#9;&#9;&#9;M243.587,184.157v-38.287c0-11.873,9.625-21.498,21.498-21.498h0c11.873,0,21.498,9.625,21.498,21.498v63.817&#10;&#9;&#9;&#9;&#9;c0,11.873-9.625,21.498-21.498,21.498h0c-6.966,0-13.158-3.313-17.087-8.45"/>
			<path style="fill:none;stroke:#000000;stroke-width:15;stroke-linecap:round;stroke-linejoin:round;stroke-miterlimit:10;" d="&#10;&#9;&#9;&#9;&#9;M372.524,211.868v41.777c0,26.442-10.228,47.001-16.033,56.912c-2.564,4.378-3.895,9.364-3.895,14.436v30.451"/>
			<path style="fill:none;stroke:#000000;stroke-width:15;stroke-linecap:round;stroke-linejoin:round;stroke-miterlimit:10;" d="&#10;&#9;&#9;&#9;&#9;M272.361,291.801c-8.637-25.983-28.078-37.111-51.343-38.373c0,0,0,0,0,0l-5.386-28.534h21.881&#10;&#9;&#9;&#9;&#9;c11.359,0,20.568-9.203,20.568-20.556v0c0-11.353-9.209-20.556-20.568-20.556h-42.999c-13.174,0-23.853,10.673-23.853,23.839&#10;&#9;&#9;&#9;&#9;l0.035,43.473c0.021,23.954,14.431,44.859,35.872,55.886c1.628,0.837,3.118,1.653,4.48,2.441&#10;&#9;&#9;&#9;&#9;c8.51,4.923,13.741,14.004,13.741,23.831v21.963"/>
		</g>
		
			<line style="fill:none;stroke:#000000;stroke-width:15;stroke-linecap:round;stroke-linejoin:round;stroke-miterlimit:10;" x1="357.025" y1="403.138" x2="357.025" y2="504.5"/>
		
			<line style="fill:none;stroke:#000000;stroke-width:15;stroke-linecap:round;stroke-linejoin:round;stroke-miterlimit:10;" x1="218.301" y1="504.5" x2="218.301" y2="403.368"/>
		<path style="fill:none;stroke:#000000;stroke-width:15;stroke-linecap:round;stroke-linejoin:round;stroke-miterlimit:10;" d="&#10;&#9;&#9;&#9;M249.102,402.302h-30.801c-5.838,0-10.571-4.733-10.571-10.571v-24.421c0-5.838,4.733-10.571,10.571-10.571h138.724&#10;&#9;&#9;&#9;c5.838,0,10.571,4.733,10.571,10.571v24.421c0,5.838-4.733,10.571-10.571,10.571h-73.07"/>
	</g>
</g>
<g>
</g>
<g>
</g>
<g>
</g>
<g>
</g>
<g>
</g>
<g>
</g>
<g>
</g>
<g>
</g>
<g>
</g>
<g>
</g>
<g>
</g>
<g>
</g>
<g>
</g>
<g>
</g>
<g>
</g>
</svg>