<svg id="Layer_2_copy_2" height="512" viewBox="0 0 256 256" width="512" xmlns="http://www.w3.org/2000/svg" data-name="Layer 2 copy 2"><path d="m232.5784 105.9719-8.36-24.436a9.3619 9.3619 0 0 0 -10.32-15.57l-11.3184-10.1279a11.6867 11.6867 0 0 0 -19.0352-12.5562l-23.9735-9.4018c.007-.1484.0225-.2947.0225-.4448a9.3673 9.3673 0 0 0 -18.1631-3.2284l-21.6968-.5612a8.9887 8.9887 0 0 0 -17.5326 2.4112l-21.57 6.6556a11.6883 11.6883 0 0 0 -20.4673 11.2242l-29.514 25.0604a10.0922 10.0922 0 1 0 -6.9683 18.49l2.5308 17.21a9.3649 9.3649 0 1 0 9.262 16.2545l27.8076 22.5285a8.9569 8.9569 0 0 0 13.235 10.5695l12.641 9.9505a8.5147 8.5147 0 0 0 16.8041 2.7542l19.2013-4.1851a11.9775 11.9775 0 0 0 10.6749 6.5779c.0426 0 .0837-.006.1262-.0063l12.542 46.417a8.5269 8.5269 0 1 0 12.73 3.3938l7.7942-7.7944a8.52 8.52 0 1 0 5.2163-16.1091l-1.6592-10.3694a8.52 8.52 0 0 0 4.28-6.9653l23.999-7.68a8.515 8.515 0 1 0 11.6091-12.2224l3.24-12.2664a8.5147 8.5147 0 0 0 5.7683-13.8245l9.5028-16.1256a7.8584 7.8584 0 1 0 1.59-15.6232zm-14.0684-35.2287a3.374 3.374 0 1 1 -3.374 3.374 3.3781 3.3781 0 0 1 3.374-3.374zm-8.6172-.3109a9.32 9.32 0 0 0 -.7568 3.6849 9.44 9.44 0 0 0 .0573 1.0145l-12.9084 5.9883a11.3988 11.3988 0 0 0 -4.7776-3.3337l1.1948-14.4141a11.651 11.651 0 0 0 6.3721-2.62zm-38.9587 56.1755a9.6123 9.6123 0 0 0 -2.746.5665l-13.725-17.5374a14.5408 14.5408 0 0 0 3.4443-9.4036c0-.054-.0076-.1061-.0081-.16l20.7937-4.6028c.1006.1276.2031.2528.309.3759zm4.2615 9.6666a3.6951 3.6951 0 1 1 -3.6953-3.6953 3.6992 3.6992 0 0 1 3.6955 3.6953zm-66.375-26.3408a14.261 14.261 0 0 0 -3.353.4126l-11.8663-24.7129a11.4565 11.4565 0 0 0 .8964-1.07l34.3923 13.3116a14.0872 14.0872 0 0 0 .7683 7.5679l-11.2761 8.1779a14.2543 14.2543 0 0 0 -9.5614-3.6871zm8.3276 14.3271a8.3274 8.3274 0 1 1 -8.3276-8.3271 8.3368 8.3368 0 0 1 8.3278 8.3271zm-40.6975-22.7346 6.5393-12.6026a11.1518 11.1518 0 0 0 5.4507-.1758l11.62 24.201a14.4158 14.4158 0 0 0 -3.4994 3.9358l-16.1753-5.5478c.0233-.3047.0466-.6093.0466-.92a11.9333 11.9333 0 0 0 -3.9819-8.8906zm-5.3214-2.7727a11.8521 11.8521 0 0 0 -10.914 2.9993l-25.2023-15.6879c.03-.1136.0622-.2262.088-.3413l39.909-3.2672a11.4017 11.4017 0 0 0 2.6605 3.69zm8.879-20.939a5.3657 5.3657 0 1 1 5.3657 5.3656 5.3721 5.3721 0 0 1 -5.3657-5.3655zm96.3339 12.0322-19.7456 4.37a14.6711 14.6711 0 0 0 -8.3544-7.7156l2.22-15.8953a10.1079 10.1079 0 0 0 4.4993-1.9294l22.0092 15.8187a10.9322 10.9322 0 0 0 -.6287 5.3512zm-27.5082-25.0976a4.1709 4.1709 0 1 1 4.1709-4.1709 4.1753 4.1753 0 0 1 -4.1709 4.1709zm3.0737 35.4844a8.613 8.613 0 1 1 -8.6128-8.6123 8.6231 8.6231 0 0 1 8.6128 8.6123zm-9.6077-14.5619a14.6047 14.6047 0 0 0 -11.2465 6.6068l-34.3725-13.3044q.0571-.5609.0576-1.1372l43.5161-11.8194a10.2231 10.2231 0 0 0 4.2655 3.7581zm-9.3915 24.826a14.5273 14.5273 0 0 0 16.8273 2.833l13.723 17.5352c-.1587.2352-.3049.4792-.4429.7283l-39.8832-7.6445a14.2273 14.2273 0 0 0 -1.2175-5.4791zm51.3862-11.18a11.3064 11.3064 0 0 0 10.9963-2.5133l27.5171 17.2521-43.7164 16.2051a9.7584 9.7584 0 0 0 -2.3533-2.1332zm-2.0476-10.8684a5.3657 5.3657 0 1 1 5.3657 5.3652 5.3719 5.3719 0 0 1 -5.3657-5.3651zm9.3892-42.4346a5.7056 5.7056 0 1 1 -5.7056 5.7061 5.7122 5.7122 0 0 1 5.7055-5.706zm-4.87 16.3362-1.2378 14.9333a11.3175 11.3175 0 0 0 -5.0583 2.3367l-22-15.812a10.1056 10.1056 0 0 0 .5148-2.8337l21.49-5.7321a11.7544 11.7544 0 0 0 6.2909 7.108zm-29.3819-22.883 23.01 9.0234q-.0862.3-.1562.6057l-22.8 6.0816a10.2079 10.2079 0 0 0 -5.1127-4.1409l.4385-8.588a9.3876 9.3876 0 0 0 4.6204-2.9818zm-7.1644-9.4062a3.374 3.374 0 1 1 -3.374 3.374 3.378 3.378 0 0 1 3.374-3.374zm-8.9558 6.1434a9.4127 9.4127 0 0 0 5.5073 5.939l-.4385 8.5873a10.1183 10.1183 0 0 0 -3.4736 1.6342l-22.3323-16.697zm-30.0842-6.7772a2.998 2.998 0 1 1 -2.9976 2.998 3.0012 3.0012 0 0 1 2.9976-2.998zm-1.5811 11.8482a8.8669 8.8669 0 0 0 6.5753-1.3707l23.09 17.2632a10.0989 10.0989 0 0 0 -.5826 3.0582l-43.5294 11.8234a11.4319 11.4319 0 0 0 -1.755-2.2774zm-27.1746 3.6341c0-.1568-.0173-.3092-.0236-.4645l21.5719-6.6564c.1323.1772.2683.3507.4131.5176l-16.2072 28.506a11.3117 11.3117 0 0 0 -2.8044-.3645c-.3245 0-.6436.0219-.9613.0487l-6.0976-12.6987a11.6754 11.6754 0 0 0 4.1091-8.8882zm-11.7051-5.7049a5.7051 5.7051 0 1 1 -5.7055 5.7049 5.7116 5.7116 0 0 1 5.7055-5.7049zm-6.6742 15.308a11.4488 11.4488 0 0 0 8.5309 1.94l5.6 12.5731a11.3571 11.3571 0 0 0 -4.0869 7.4847l-39.4779 3.2319c-.024-.0592-.0438-.12-.0689-.1793zm-38.797 33.108a4.1021 4.1021 0 1 1 4.1026-4.1011 4.1066 4.1066 0 0 1 -4.1026 4.1011zm5.2231 34.791a3.3745 3.3745 0 1 1 3.374-3.375 3.3782 3.3782 0 0 1 -3.3739 3.375zm1.677-12.59-2.5306-17.2086a10.1213 10.1213 0 0 0 2.2231-1.4565l25.19 15.68a11.9328 11.9328 0 0 0 -.5292 3.2164l-18.0466 4.0955a9.3837 9.3837 0 0 0 -6.3066-4.3271zm34.9133 34.9973-27.81-22.53a9.2763 9.2763 0 0 0 .5446-2.2919l18.0307-4.0917a11.9962 11.9962 0 0 0 8.54 6.291l1.7209 22.0769a8.9133 8.9133 0 0 0 -1.0261.5454zm-4.5785-34.4024a5.9749 5.9749 0 1 1 5.9746 5.9746 5.9817 5.9817 0 0 1 -5.9746-5.9746zm9.2524 45.0254a2.9756 2.9756 0 1 1 2.9756-2.9756 2.9787 2.9787 0 0 1 -2.9755 2.9756zm2.3342-11.6324-1.7212-22.08a12.0229 12.0229 0 0 0 6.0938-4.717l16.1627 5.5436a13.92 13.92 0 0 0 1.2632 7.787l-19.2218 14.6193a8.9271 8.9271 0 0 0 -2.5767-1.1529zm23.5062 29.989a2.5239 2.5239 0 1 1 2.5239-2.5244 2.5269 2.5269 0 0 1 -2.5239 2.5242zm7.2753-6.9431a8.5014 8.5014 0 0 0 -12.7091-2.1422l-9.3467-7.358 37.166 6.2072zm20.0566-8.55-44.3427-7.4059a8.8992 8.8992 0 0 0 -.2822-1.1648l19.2173-14.6163a14.2715 14.2715 0 0 0 14.8455 2.3586l12.4253 17.8958a11.9931 11.9931 0 0 0 -1.8632 2.9324zm-5.6447-24.2659a14.3539 14.3539 0 0 0 2.7521-4.1956l39.8749 7.6427a9.6078 9.6078 0 0 0 .45 1.9325l-19.0643 14.3843a11.8591 11.8591 0 0 0 -11.5767-1.8534zm16.5754 35.1077a5.9751 5.9751 0 1 1 5.9746-5.9746 5.9817 5.9817 0 0 1 -5.9745 5.9744zm17.6417 61.8416a2.5234 2.5234 0 1 1 2.5234-2.5234 2.5265 2.5265 0 0 1 -2.5234 2.5234zm10.5415-21.5893a8.4628 8.4628 0 0 0 .7671 3.5144l-7.7947 7.7944a8.4428 8.4428 0 0 0 -2.6978-.7256l-12.5407-46.4132a12.0471 12.0471 0 0 0 2.3523-1.7573l15.8978 9.8291a8.51 8.51 0 0 0 6.6594 9.9944l1.6592 10.3691a8.5227 8.5227 0 0 0 -4.3026 7.3947zm4.3452-23.5928a2.5234 2.5234 0 1 1 2.5234-2.5234 2.5261 2.5261 0 0 1 -2.5234 2.5238zm6.7021 23.5928a2.5237 2.5237 0 1 1 -2.5234-2.5234 2.5269 2.5269 0 0 1 2.5234 2.5234zm-.0278-31.4017a8.4844 8.4844 0 0 0 -11.8716-1.4547l-14.5654-9.0057 44.45 4.696zm-27.3733-16.5923a11.8806 11.8806 0 0 0 -.771-2.8186l19.0532-14.376a9.6533 9.6533 0 0 0 10.1372.6013l23.03 22.0283zm32.8191-20.6873 26.0208 4.0752a8.5369 8.5369 0 0 0 3.4111 5.2075l-3.24 12.2668a8.4382 8.4382 0 0 0 -2.82.8052zm27.0547 32.5527a2.5234 2.5234 0 1 1 2.5234-2.5234 2.5261 2.5261 0 0 1 -2.5234 2.5235zm7.3125-27.6826a2.5239 2.5239 0 1 1 2.5239-2.5244 2.5269 2.5269 0 0 1 -2.5239 2.5245zm1.4613-10.9133a8.44 8.44 0 0 0 -8.8708 4.1919l-24.1188-3.7774 41.8977-15.5308zm9.6176-25.7424-27.4414-17.2041a11.0094 11.0094 0 0 0 .3171-5.1659l12.92-5.9928a9.34 9.34 0 0 0 6.782 2.9209c.0121 0 .0237-.0017.0358-.0018l8.3563 24.4269a7.9372 7.9372 0 0 0 -.9698 1.0168zm6.158 6.7485a1.8672 1.8672 0 1 1 1.8672-1.8672 1.8692 1.8692 0 0 1 -1.8673 1.8672z"/></svg>