<svg id="Layer_1" enable-background="new 0 0 512.004 512.004" height="512" viewBox="0 0 512.004 512.004" width="512" xmlns="http://www.w3.org/2000/svg"><g><path d="m507.003 76.314c-85.573-49.535-184.247-75.975-283.123-75.863-4.526 0-8.488 3.04-9.659 7.412l-26.678 99.562c-6.779 25.299-8.635 51.171-5.537 77.009-13.578 2.59-27.067 5.678-40.437 9.261-47.786 12.804-93.734 31.836-136.568 56.569-3.92 2.263-5.831 6.876-4.659 11.249l26.678 99.562c23.855 89.195 109.211 156.595 202.28 150.038 64.313-37.131 102.212-105.569 102.109-177.333 73.274-15.375 134.83-74.046 153.576-146.656l26.678-99.562c1.171-4.372-.74-8.985-4.66-11.248zm-285.388 416.119c-82.125-1.19-153.965-56.999-175.277-136.536l-24.677-92.097c78.74-44.102 168.562-68.173 258.804-69.346l24.678 92.097c21.311 79.537-13 163.788-83.528 205.882zm244.051-310.485c-17.474 65.215-70.059 115.997-135.302 131.554-1.092-10.724-3.046-21.464-5.903-32.127l-21.509-80.273c5.943-.216 11.861.456 17.67 2.012 20.652 5.534 36.92 21.802 42.454 42.456 1.197 4.468 5.237 7.415 9.653 7.414.856 0 1.728-.111 2.594-.343 5.335-1.429 8.501-6.913 7.071-12.248-9.429-36.981-46.775-63.031-84.728-58.982-1.3-4.155-5.156-7.01-9.542-7.01h-.022c-28.929 0-57.806 2.222-86.357 6.628-2.623-22.959-.908-45.943 5.117-68.427l24.678-92.097c90.242 1.175 180.065 25.244 258.804 69.346z"/><path d="m139.667 335.971c3.905 3.906 10.235 3.906 14.143 0 3.905-3.905 3.905-10.237 0-14.142-11.241-11.242-27.767-15.67-43.119-11.554-15.356 4.114-27.452 16.209-31.566 31.565-1.43 5.335 1.736 10.818 7.071 12.248 5.191 1.435 10.837-1.693 12.247-7.071 2.271-8.477 8.947-15.153 17.424-17.424 8.479-2.269 17.596.173 23.8 6.378z"/><path d="m226.602 279.216c-15.355 4.114-27.45 16.209-31.566 31.565-1.43 5.334 1.735 10.818 7.07 12.248 5.191 1.435 10.837-1.692 12.248-7.07 2.271-8.477 8.948-15.154 17.424-17.425 8.479-2.271 17.597.172 23.802 6.377 3.906 3.906 10.236 3.906 14.143 0 3.905-3.905 3.905-10.237 0-14.142-11.242-11.24-27.764-15.668-43.121-11.553z"/><path d="m248.705 342.385c-5.336-1.429-10.818 1.736-12.248 7.071-5.535 20.653-21.803 36.921-42.455 42.456-20.655 5.534-42.876-.42-57.995-15.54-3.906-3.905-10.236-3.905-14.143 0-3.905 3.905-3.905 10.237 0 14.143 43.182 43.47 118.344 23.151 133.911-35.882 1.43-5.335-1.736-10.818-7.07-12.248z"/><path d="m304.722 115.62c-6.207 6.205-15.325 8.648-23.803 6.378-8.477-2.271-15.152-8.948-17.424-17.424-1.43-5.334-6.913-8.502-12.247-7.071-5.335 1.429-8.501 6.913-7.071 12.247 8.562 32.871 50.75 44.256 74.686 20.013 3.906-3.905 3.906-10.236.001-14.142-3.904-3.906-10.237-3.907-14.142-.001z"/><path d="m360.089 140.808c8.562 32.871 50.75 44.256 74.686 20.013 3.906-3.905 3.906-10.236.001-14.142-3.903-3.905-10.236-3.906-14.142 0-6.207 6.205-15.325 8.647-23.803 6.378-8.477-2.271-15.152-8.948-17.424-17.424-1.429-5.335-6.915-8.503-12.247-7.071-5.335 1.428-8.501 6.912-7.071 12.246z"/></g></svg>