<svg height="512" viewBox="0 0 61 60" width="512" xmlns="http://www.w3.org/2000/svg"><g id="Page-1" fill="none" fill-rule="evenodd"><g id="029---Brain-Research" fill="rgb(0,0,0)" fill-rule="nonzero" transform="translate(-1 -1)"><path id="Shape" d="m50.419 43.305c.5488719-1.1397289.3205602-2.5015877-.57-3.4l-1.914-1.922c5.9751499-10.9269836 3.0056707-24.5848199-6.9670801-32.04441974s-23.9131851-6.45034892-32.70745981 2.36793439c-8.79427468 8.81828335-9.76551599 22.76141745-2.27875511 32.71379395 7.48676082 9.9523766 21.15264212 12.8846094 32.06329502 6.8796914l1.908 1.909c.5614655.5602549 1.3228259.8740103 2.116.872.4458631-.0039591.8853419-.1064017 1.287-.3l9.157 9.157c1.9537073 1.9534312 5.1210688 1.9532073 7.0745-.0005s1.9532073-5.1210688-.0005-7.0745zm-47.419-17.305c0-12.7025492 10.2974508-23 23-23s23 10.2974508 23 23-10.2974508 23-23 23c-12.6966095-.0143284-22.98567159-10.3033905-23-23zm38.367 22.393-1.567-1.563c2.8045255-1.8658099 5.2065233-4.2749484 7.064-7.085l1.565 1.572c.3850802.3895663.3850802 1.0164337 0 1.406-.0277413.0270955-.0534758.0561721-.077.087l-5.568 5.578c-.1869829.1890538-.4415611.2958535-.7074616.2967918-.2659005.0009382-.521226-.1040623-.7095384-.2917918zm16.806 9.73c-1.1896195 1.1304163-3.0563805 1.1304163-4.246 0l-9.027-9.023 4.237-4.245 9.032 9.022c1.1705028 1.1733273 1.1705028 3.0726727 0 4.246z"/><path id="Shape" d="m19.185 25.233c1.4342487-.0898843 2.7859736-.7017176 3.8-1.72.3901892-.3912937.3892937-1.0248108-.002-1.415-.3912938-.3901892-1.0248108-.3892937-1.415.002-.7617395.7619594-1.8024678 1.1784462-2.87957 1.152369s-2.0964562-.4924397-2.82043-1.290369c-.3731254-.4008144-.9992256-.4269733-1.4044848-.0586803s-.4389228.9940345-.0755152 1.4036803c.7341698.8022238 1.6742507 1.3877856 2.718 1.693-.2511111.4894634-.6627509.8778029-1.166 1.1-.4375392.1863881-.6832758.6551446-.587674 1.1210216s.50609.7999708.981674.7989784c.1354135-.0005263.2693612-.0280638.394-.081 1.1709768-.5053752 2.0666553-1.4918246 2.457-2.706z"/><path id="Shape" d="m22.419 28.678c-.228145-.0001594-.4561359.0118577-.683.036-1.8476361.1481222-3.4383899 1.3620053-4.069 3.105-.6318613 1.8107877-.164771 3.8235576 1.2 5.171.5966258.5919153.9352066 1.3955954.942 2.236 0 .5522847.4477153 1 1 1s1-.4477153 1-1c-.0043189-1.3637678-.5465879-2.6707474-1.509-3.637-.8276774-.8018094-1.119289-2.0087464-.749-3.1.3733853-1.0204491 1.3154478-1.7230708 2.4-1.79.1550845-.0169633.3109908-.0253095.467-.025.5522847 0 1-.4477153 1-1s-.4477153-1-1-1z"/><path id="Shape" d="m29.813 28.714c-.2271939-.0242008-.4555209-.036218-.684-.036-.5522847 0-1 .4477153-1 1s.4477153 1 1 1c.1566723-.000229.3132398.0081169.469.025 1.0846455.0666745 2.0268323.7693888 2.4 1.79.3707981 1.0912306.0791199 2.2984435-.749 3.1-.9651302.9654206-1.5099764 2.2729077-1.516 3.638 0 .5522847.4477153 1 1 1s1-.4477153 1-1c.0074939-.840949.3467639-1.6449185.944-2.237 1.3648195-1.3470019 1.8319446-3.3595325 1.2-5.17-.6282912-1.743403-2.2169883-2.9591629-4.064-3.11z"/><path id="Shape" d="m43.71 31.088c.0020412-1.1084435-.3827408-2.1828622-1.088-3.038 1.6243642-2.2947226 1.4103796-5.4154719-.512-7.467.4759991-2.7533058-1.1915067-5.4250169-3.874-6.207.5932944-2.1508917-.5318106-4.40282735-2.608-5.22-3.91-2.847-6.756-3.761-8.69-2.781-.3558523.1799351-.6741881.42598355-.938.725-.2636304-.29973506-.5819781-.54647151-.938-.727-1.933-.98-4.781-.067-8.7 2.785-2.071447.8196564-3.192418 3.0684968-2.6 5.216-2.6825734.7828758-4.34930635 3.4555888-3.872 6.209-1.92282305 2.0514459-2.13642651 5.1727317-.511 7.467-.70606393.8547475-1.09126389 1.9293457-1.089 3.038.0073741 2.02132 1.27567108 3.8231323 3.176 4.512-.3368822 1.4292727-.0506976 2.9343696.7872435 4.1402571.8379412 1.2058875 2.1487325 1.9990109 3.6057565 2.1817429.9986967 1.8191435 2.8751722 2.9843871 4.9485369 3.0729155 2.0733647.0885285 4.0423365-.9125223 5.1924631-2.6399155 1.1501266 1.7273932 3.1190984 2.728444 5.1924631 2.6399155 2.0733647-.0885284 3.9498402-1.253772 4.9485369-3.0729155 1.457024-.182732 2.7678153-.9758554 3.6057565-2.1817429.8379411-1.2058875 1.1241257-2.7109844.7872435-4.1402571 1.9003289-.6888677 3.1686259-2.49068 3.176-4.512zm-22.647 11.912c-1.5900234.0020584-3.0245391-.954417-3.634-2.423-.1553781-.3724703-.5194204-.6150337-.923-.615-1.7540855-.0016529-3.1757951-1.4229151-3.178-3.177-.0021353-.5030724.1194318-.9989561.354-1.444.1587463-.2983495.1560613-.6566943-.0071379-.9526315s-.4648301-.4894237-.8018621-.5143685c-1.4557004-.1131542-2.5800908-1.3259113-2.583-2.786.0029578-.5745515.1850851-1.1338677.521-1.6.999121.7066342 2.1932475 1.0851062 3.417 1.083.5522847 0 1-.4477153 1-1s-.4477153-1-1-1c-1.6408836.0013559-3.1104516-1.0153976-3.6876777-2.5514023-.57722616-1.5360048-.1409886-3.2689545 1.0946777-4.3485977.2631861-.2678501.3756759-.6491906.3-1.017-.0855038-.3121801-.1292184-.6343231-.13-.958-.0002882-1.6949922 1.1954755-3.1547212 2.8573556-3.4881178s3.3281431.5521693 3.9816444 2.1161178c.2180254.502277.7994525.7358079 1.304336.5238883.5048834-.2119196.7454467-.7904726.539664-1.2978883-.802306-1.9124171-2.6063754-3.2158707-4.674-3.377-.1327268-.2935666-.2048333-.6109031-.212-.933.003768-1.027878.6554096-1.9416191 1.626-2.28.2560246-.0944874.5271086-.1415882.8-.139.9456615.0013505 1.8043507.5520825 2.2 1.411.1426684.3342301.4554277.5647541.8169083.6021148.3614806.0373606.7147764-.1243238.922787-.4223096.2080107-.2979859.2379902-.6853629.0783047-1.0118052-.438434-.9532785-1.2015587-1.71959326-2.153-2.162 2.645-1.508 3.828-1.3 4.258-1.083.824.409.851 1.66.851 1.666v4.579c-.4041469-.1718372-.8388387-.2602721-1.278-.26-.5522847 0-1 .4477153-1 1s.4477153 1 1 1c.7044204.0016514 1.2749004.5725785 1.276 1.277v21.646c-.0022049 2.1734311-1.7635689 3.9347951-3.937 3.937zm18.064-9.126c-.337032.0249448-.6386629.2184313-.8018621.5143685s-.1658842.654282-.0071379.9526315c.2345682.4450439.3561353.9409276.354 1.444-.0022049 1.7540849-1.4239145 3.1753471-3.178 3.177-.4035796-.0000337-.7676219.2425297-.923.615-.7219087 1.7320854-2.5659371 2.7139321-4.4060112 2.3459659-1.8400742-.3679662-3.1647029-1.9834607-3.1649888-3.8599659v-17.849c.0005515-.7055914.5724086-1.2774485 1.278-1.278.5522847 0 1-.4477153 1-1s-.4477153-1-1-1c-.4394392.0009649-.8741474.0907638-1.278.264v-8.379c0-.012.036-1.254.843-1.662.43-.217 1.611-.436 4.266 1.079-.9514413.44240674-1.714566 1.2087215-2.153 2.162-.1596855.3264423-.129706.7138193.0783047 1.0118052.2080106.2979858.5613064.4596702.922787.4223096.3614806-.0373607.6742399-.2678847.8169083-.6021148.3956493-.8589175 1.2543385-1.4096495 2.2-1.411.2730615-.0004321.5439974.0479977.8.143l.036.014c.6247629.216771 1.1291489.6869517 1.3891883 1.2949796.2600395.6080278.2516203 1.2975234-.0231883 1.8990204-2.0676246.1611293-3.871694 1.4645829-4.674 3.377-.2057827.5074157.0347806 1.0859687.539664 1.2978883.5048835.2119196 1.0863106-.0216113 1.304336-.5238883.6498943-1.5716128 2.3213727-2.4633115 3.9886462-2.1278592 1.6672735.3354524 2.8638355 1.8041954 2.8553538 3.5048592-.0007816.3236769-.0444962.6458199-.13.958-.0868078.3681969.0272539.7548662.3 1.017 1.2379783 1.0787006 1.6757699 2.8128468 1.098149 4.3499021-.577621 1.5370554-2.0491465 2.5536858-3.691149 2.5500979-.5522847 0-1 .4477153-1 1s.4477153 1 1 1c1.2238613.0018139 2.4179976-.3770107 3.417-1.084.3355551.4663148.517644 1.0255129.521 1.6-.0042603 1.4571591-1.1254215 2.6674738-2.578 2.783z"/><path id="Shape" d="m36.06 26.1c-.5032491-.2221971-.9148889-.6105366-1.166-1.1 1.0441747-.3073452 1.9839729-.8953676 2.717-1.7.3634076-.4096458.329744-1.0353873-.0755152-1.4036803s-1.0313594-.3421341-1.4044848.0586803c-.7239738.7979293-1.7433278 1.2642918-2.82043 1.290369s-2.1178305-.3904096-2.87957-1.152369c-.3923789-.3789722-1.0160848-.3735524-1.4018186.0121814s-.3911536 1.0094397-.0121814 1.4018186c1.0140264 1.0182824 2.3657513 1.6301157 3.8 1.72.3918318 1.2119086 1.2873059 2.1959461 2.457 2.7.1246388.0529362.2585865.0804737.394.081.475584.0009924.8860722-.3331014.981674-.7989784s-.1501348-.9346335-.587674-1.1210216z"/></g></g></svg>