<?xml version="1.0" encoding="UTF-8"?>
<svg xmlns="http://www.w3.org/2000/svg" id="Layer_1" data-name="Layer 1" viewBox="0 0 64 64" width="512" height="512"><path d="M32,38c-8,0-9.595-1.954-9.895-2.553A1,1,0,0,1,22,35V32a7.008,7.008,0,0,1,7-7h6a7.008,7.008,0,0,1,7,7v3a1,1,0,0,1-.1.447C41.6,36.046,40,38,32,38Zm-8-3.367c.422.308,2.245,1.367,8,1.367,5.64,0,7.5-1.017,8-1.394V32a5.006,5.006,0,0,0-5-5H29a5.006,5.006,0,0,0-5,5ZM41,35h0Z"/><path d="M32,27a6,6,0,1,1,6-6A6.006,6.006,0,0,1,32,27Zm0-10a4,4,0,1,0,4,4A4,4,0,0,0,32,17Z"/><path d="M54,38a35.769,35.769,0,0,1-4.116-.214l.232-1.986A33.816,33.816,0,0,0,54,36c5.64,0,7.5-1.017,8-1.394V32a5.006,5.006,0,0,0-5-5H54V25h3a7.008,7.008,0,0,1,7,7v3a1,1,0,0,1-.1.447C63.6,36.046,62,38,54,38Z"/><path d="M54,27V25a4,4,0,0,0,0-8,3.959,3.959,0,0,0-2.4.8l-1.2-1.6A5.94,5.94,0,0,1,54,15a6,6,0,0,1,0,12Z"/><path d="M10,38c-8,0-9.6-1.954-9.895-2.553A1,1,0,0,1,0,35V32a7.008,7.008,0,0,1,7-7h3v2H7a5.006,5.006,0,0,0-5,5v2.633C2.422,34.941,4.245,36,10,36a33.816,33.816,0,0,0,3.884-.2l.232,1.986A35.769,35.769,0,0,1,10,38Z"/><path d="M10,27a6,6,0,0,1,0-12,5.94,5.94,0,0,1,3.6,1.2l-1.2,1.6A3.959,3.959,0,0,0,10,17a4,4,0,0,0,0,8Z"/><path d="M32,45A19,19,0,1,1,51,26,19.021,19.021,0,0,1,32,45ZM32,9A17,17,0,1,0,49,26,17.019,17.019,0,0,0,32,9Z"/><rect x="46" y="38.172" width="2" height="5.657" transform="translate(-15.225 45.243) rotate(-45)"/><path d="M58,57a1,1,0,0,1-.707-.293l-11-11a1,1,0,0,1,0-1.414l4-4a1,1,0,0,1,1.414,0l11,11a1,1,0,0,1,0,1.414l-4,4A1,1,0,0,1,58,57ZM48.414,45,58,54.586,60.586,52,51,42.414Z"/></svg>
