<svg id="Layer_1" height="512" viewBox="0 0 64 64" width="512" xmlns="http://www.w3.org/2000/svg"><path d="m3.92 57.91c.89 3.22.74 6 .74 6.03l2 .12c0-.13.18-3.13-.81-6.69-.44-1.59-1.21-3.18-2.37-4.86-1.08-1.58-1.59-3.44-1.46-5.37.28-4.23 3.68-7.64 7.91-7.93 2.36-.15 4.61.63 6.34 2.21 1.74 1.59 2.72 3.75 2.77 6.1 0 .2.07.39.18.55l2.04 3.5h-1.22c-.55 0-1 .45-1 1v5.08c0 .15-.12.27-.27.27h-2.54c-.55 0-1 .45-1 1v5.08h2v-4.08h1.54c1.25 0 2.27-1.02 2.27-2.27v-4.08h1.96c.36 0 .69-.19.87-.5s.18-.69 0-1l-2.84-4.87c-.13-2.79-1.34-5.36-3.41-7.26-2.14-1.96-4.91-2.92-7.82-2.73-5.24.36-9.44 4.57-9.78 9.8-.16 2.38.47 4.68 1.81 6.63 1.03 1.5 1.71 2.9 2.09 4.27z"/><path d="m62.17 53.64c1.34-1.96 1.96-4.25 1.81-6.63-.34-5.23-4.54-9.44-9.77-9.79-2.91-.19-5.68.77-7.82 2.73-2.07 1.9-3.28 4.46-3.41 7.26l-2.84 4.87c-.18.31-.18.69 0 1s.51.5.87.5h1.96v4.08c0 1.25 1.02 2.27 2.27 2.27h1.54v4.08h2v-5.08c0-.55-.45-1-1-1h-2.54c-.15 0-.27-.12-.27-.27v-5.08c0-.55-.45-1-1-1h-1.22l2.03-3.48c.12-.16.19-.36.19-.57.05-2.35 1.03-4.51 2.77-6.1 1.73-1.58 3.98-2.37 6.34-2.21 4.23.29 7.63 3.69 7.91 7.93.13 1.93-.38 3.79-1.46 5.37-1.15 1.68-1.93 3.27-2.36 4.86-.99 3.56-.81 6.56-.81 6.69l2-.12s-.16-2.81.74-6.03c.38-1.37 1.06-2.77 2.09-4.27z"/><path d="m37 26h9.45l4.71 7.53c.19.3.51.47.85.47.09 0 .18-.01.28-.04.43-.12.72-.52.72-.96v-7h6c1.1 0 2-.9 2-2v-22c0-1.1-.9-2-2-2h-22c-1.1 0-2 .9-2 2v13h2v-13h22v22h-7c-.55 0-1 .45-1 1v4.51l-3.15-5.04c-.18-.29-.5-.47-.85-.47h-10v-4h10.64c4.61 0 8.36-3.75 8.36-8.36 0-3.8-3.09-6.89-6.89-6.89-3.15 0-5.71 2.56-5.71 5.71 0 2.63 2.14 4.77 4.77 4.77 2.21 0 4.01-1.8 4.01-4.01 0-1.88-1.53-3.41-3.41-3.41-1.62 0-2.93 1.31-2.93 2.93h2c0-.51.42-.93.93-.93.78 0 1.41.63 1.41 1.41 0 1.11-.9 2.01-2.01 2.01-1.53 0-2.77-1.24-2.77-2.77 0-2.05 1.66-3.71 3.71-3.71 2.69 0 4.89 2.19 4.89 4.89 0 3.51-2.85 6.36-6.36 6.36h-28.9c.1-.44.08-.91-.07-1.35 0-.02-.01-.04-.02-.05.03 0 .06.01.09.01.83.11 2.03-.2 3-2.27.88-1.86 1.72-4.25.46-6.23-1.35-2.13-4.29-2.23-5.7-2.28-.05 0-.1 0-.14 0-.8-.44-1.71-.63-2.58-.51-2.01.27-3.81 2.01-4.36 4.22-.21.83-.22 1.66-.08 2.41-.79.82-1.29 1.93-1.35 3.06-.04.69.09 1.29.37 1.79.4.7 1.05 1.1 1.68 1.43 1.54.79 3.19 1.35 4.9 1.65.32.06.67.1 1.03.11s11 0 11 0v4h-10c-.34 0-.67.18-.85.47l-3.15 5.04v-4.51c0-.55-.45-1-1-1h-6.98v-21.99h22v13h2v-13c0-1.1-.9-2-2-2h-22c-1.1 0-2 .9-2 2v22c0 1.1.9 2 2 2h6v7c0 .45.3.84.72.96.09.03.18.04.28.04.34 0 .66-.17.85-.47l4.71-7.53h9.45c1.1 0 2-.9 2-2v-4h6v4c0 1.1.9 2 2 2zm-17.06-12.51c-.38.82-.75 1.15-.94 1.14-.09-.01-.26-.19-.32-.43-.08-.37.01-.84.13-1.29.05-.21.1-.32.12-.38.02.01.05.03.06.05.11.14.17.42.14.76l.84.06s-.03.06-.04.1zm-5.03-5.53c.25-.1.54-.13.85-.14.04.03.07.06.11.09.24.22.63.67.61 1.29v.06c-.07 0-.17 0-.33-.03-.47-.06-.96-.12-1.31-.31-.25-.13-.4-.34-.4-.46 0-.14.2-.38.48-.5zm-1 4.79c-.14.19-.37.29-.52.34-.46.15-1 .07-1.33-.19-.09-.07-.17-.15-.24-.23.65-.23 1.41-.21 2.08.08zm-2.54-2.73c.19-.75.58-1.41 1.08-1.9-.02.13-.03.25-.02.38.02.83.52 1.63 1.33 2.11-.82-.17-1.69-.12-2.49.14.01-.25.05-.5.11-.73zm5.24 7.84c-.25.17-.71.14-1.1.08.04-.15.09-.29.15-.41.15-.29.42-.51.65-.53.18 0 .42.13.48.31s-.02.44-.18.55zm.27-5.46c-.18.7-.32 1.45-.14 2.23.03.15.08.29.13.43-.24-.05-.48-.07-.73-.05-.93.08-1.8.7-2.27 1.62-.14.27-.24.55-.31.86-.89-.27-1.76-.62-2.59-1.05-.36-.19-.72-.39-.86-.64-.09-.16-.13-.39-.11-.69.02-.39.13-.78.32-1.13.15.17.32.33.5.47.85.68 2.07.88 3.17.53.96-.3 1.67-.98 1.93-1.87.18-.58.06-1.02-.07-1.28-.2-.41-.55-.64-.79-.77.29.06.57.09.82.13.43.06 1.31.17 1.98-.45.26-.24.58-.69.61-1.47.02-.44-.05-.88-.2-1.29.99.17 1.82.5 2.26 1.19.41.64.38 1.47.17 2.31-.04-.06-.09-.12-.13-.18-.67-.84-1.86-1.07-2.69-.52-.69.45-.89 1.23-.99 1.61z"/></svg>