<svg id="Layer_1" enable-background="new 0 0 512 512" height="512" viewBox="0 0 512 512" width="512" xmlns="http://www.w3.org/2000/svg"><path d="m423.319 183.875c17.962 0 32.576-14.613 32.576-32.576s-14.614-32.577-32.576-32.577-32.576 14.614-32.576 32.577 14.614 32.576 32.576 32.576zm0-53.154c11.346 0 20.576 9.23 20.576 20.577 0 11.346-9.23 20.576-20.576 20.576s-20.576-9.23-20.576-20.576 9.23-20.577 20.576-20.577zm-99.419 71.839-23.246 32.94c-2.779 3.94-3.857 8.728-3.036 13.479.821 4.752 3.443 8.898 7.383 11.678 3.94 2.778 8.724 3.856 13.479 3.037 4.751-.821 8.899-3.443 11.678-7.383l19.613-27.792 21.68-6.312-10.945 40.847c-3.246 12.115-.128 24.434 7.591 33.448l-25.614 50.213-45.391 43.612c-4.252 4.095-6.655 9.6-6.766 15.502-.111 5.901 2.083 11.493 6.177 15.745 4.332 4.497 10.124 6.759 15.923 6.759 5.517 0 11.042-2.048 15.318-6.166l48.045-46.168c1.77-1.709 3.234-3.69 4.351-5.885l19.223-37.685 17.777 30.842 3.963 57.639c.384 5.892 3.039 11.281 7.476 15.176 4.068 3.569 9.186 5.491 14.548 5.491.487 0 .978-.016 1.468-.048 5.891-.384 11.28-3.039 15.175-7.477 3.895-4.437 5.828-10.125 5.442-16.037l-4.312-62.708c-.213-3.311-1.232-6.63-2.944-9.595l-33.341-57.843c-1.426-2.474-1.746-4.909-1.008-7.667l6.275-23.449.47.773c2.103 3.448 5.365 6.121 9.185 7.526l37.833 13.928c2.032.748 4.14 1.12 6.242 1.12 2.58-.001 5.151-.561 7.563-1.676 4.377-2.022 7.705-5.629 9.369-10.154 3.437-9.342-1.368-19.737-10.708-23.174l-31.921-11.752-18.299-30.175c-.39-.963-.824-1.914-1.354-2.83-2.961-5.126-7.73-8.787-13.429-10.31l-27.284-7.289c-7.039-1.88-13.574-1.807-20.568.232l-43.438 12.662c-3.871 1.142-7.297 3.601-9.643 6.926zm45.55 162.106c-.515 1.011-1.186 1.921-1.985 2.692l-48.038 46.16c-4.012 3.862-10.417 3.741-14.279-.269-1.871-1.942-2.874-4.498-2.823-7.195s1.148-5.213 3.087-7.079l46.115-44.309c.482-.463.884-1.004 1.188-1.6l24.81-48.637c1.503.895 3.084 1.701 4.741 2.407 2.152.916 3.633 2.229 4.801 4.255l5.152 8.938zm82.352-120.784 33.892 12.478c3.132 1.152 4.743 4.638 3.591 7.77-.558 1.518-1.674 2.727-3.141 3.404-1.468.679-3.111.745-4.627.187l-37.833-13.928c-1.309-.481-2.376-1.351-3.08-2.505l-6.426-10.575 4.34-16.216 10.228 16.865c.704 1.161 1.782 2.05 3.056 2.52zm-114.884-36.729 43.424-12.658c4.864-1.419 9.217-1.469 14.113-.159l27.284 7.289c2.6.694 4.779 2.37 6.135 4.719 1.357 2.349 1.721 5.074 1.025 7.676l-16.882 63.082c-1.547 5.78-.785 11.576 2.204 16.761l33.343 57.846c.796 1.381 1.268 2.893 1.365 4.397l4.312 62.711c.175 2.693-.708 5.293-2.488 7.321s-4.243 3.241-6.936 3.417c-2.696.181-5.293-.709-7.321-2.488s-3.242-4.243-3.418-6.957l-4.06-59.044c-.062-.911-.332-1.795-.788-2.585l-30.768-53.381c-2.485-4.31-5.918-7.353-10.496-9.303-12.055-5.133-18.169-17.32-14.869-29.638l12.221-45.608c.862-3.216-.079-6.657-2.454-8.982-1.745-1.707-4.075-2.628-6.456-2.628-.861 0-1.729.12-2.578.367l-28.43 8.277c-1.305.38-2.441 1.191-3.225 2.301l-20.824 29.509c-.932 1.32-2.322 2.2-3.915 2.475-1.594.276-3.198-.086-4.52-1.019-1.321-.932-2.2-2.321-2.476-3.914-.275-1.594.086-3.198 1.018-4.519l23.245-32.939c.806-1.14 1.922-1.945 3.215-2.326zm-57.836 15.3c15.119 0 27.419-12.3 27.419-27.419s-12.3-27.42-27.419-27.42-27.42 12.301-27.42 27.42 12.301 27.419 27.42 27.419zm0-42.839c8.502 0 15.419 6.917 15.419 15.42 0 8.502-6.917 15.419-15.419 15.419s-15.42-6.917-15.42-15.419c0-8.503 6.918-15.42 15.42-15.42zm-20 111.587c.874 5.647 4.419 10.581 9.49 13.2l33.893 17.445c8.788 4.527 19.622 1.064 24.151-7.725 4.529-8.788 1.064-19.622-7.726-24.153l-25.84-13.3-4.011-25.184c-1.532-9.62-6.801-17.28-15.239-22.153l-17.621-10.173c-10.906-6.298-24.9-2.546-31.197 8.359l-24.649 42.693c-1.847 3.2-2.567 6.431-3.202 9.28-.191.859-.38 1.716-.606 2.558l-16.513 61.628-38.332 38.334c-3.836 3.836-5.949 8.937-5.949 14.361 0 5.426 2.113 10.526 5.949 14.361 3.836 3.837 8.937 5.949 14.362 5.949s10.525-2.112 14.361-5.949l42.157-42.156c2.739-2.738 4.625-6.171 5.462-9.938l6.13-22.878 13.169 7.603v56.44c0 11.2 9.112 20.312 20.312 20.312s20.312-9.111 20.312-20.312v-68.097c0-7.822-4.538-14.988-11.588-18.345l-15.188-8.769 7.873-13.637zm2.004 32.944c2.952 1.351 4.86 4.319 4.86 7.563v68.097c0 4.583-3.729 8.312-8.312 8.312s-8.312-3.729-8.312-8.312v-59.904c0-2.144-1.144-4.124-3-5.196l-18.954-10.943 1.292-4.822c5.434.24 10.775-1.496 15.04-4.802l16.883 9.748c.163.094.331.18.503.259zm-3.972-53.844-18.042 31.249c-2.574 4.459-7.983 6.498-12.863 4.847-1.57-.531-3.292-.389-4.753.394-1.462.782-2.535 2.136-2.964 3.737l-12.096 45.143c-.026.099-.051.198-.072.299-.334 1.561-1.111 2.985-2.248 4.123l-42.158 42.157c-1.57 1.569-3.657 2.434-5.876 2.434-2.22 0-4.307-.864-5.877-2.435-1.569-1.569-2.434-3.655-2.434-5.876 0-2.22.864-4.306 2.434-5.876l39.47-39.471c.745-.744 1.28-1.672 1.553-2.689l16.929-63.181c.281-1.047.508-2.067.728-3.054.512-2.299.955-4.284 1.882-5.89l24.649-42.693c2.005-3.473 5.655-5.417 9.404-5.417 1.837 0 3.698.467 5.4 1.45l17.62 10.172c5.273 3.046 8.432 7.638 9.389 13.648l4.489 28.185c.3 1.887 1.481 3.518 3.179 4.392l28.538 14.688c2.907 1.498 4.052 5.082 2.555 7.988-1.498 2.907-5.083 4.052-7.991 2.553l-33.887-17.442c-1.671-.862-2.841-2.496-3.135-4.394l-2.702-16.983c-.399-2.51-2.335-4.495-4.834-4.957-2.497-.471-5.016.697-6.287 2.899zm-135.688 9.141c-14.884 0-26.994 12.109-26.994 26.994 0 14.884 12.109 26.993 26.994 26.993s26.993-12.109 26.993-26.993-12.109-26.994-26.993-26.994zm0 41.987c-8.268 0-14.994-6.726-14.994-14.993s6.726-14.994 14.994-14.994c8.267 0 14.993 6.727 14.993 14.994s-6.726 14.993-14.993 14.993zm-95.112 87.253h15.769c15.825 0 28.96-11.003 32.102-25.938h15.922l4.717 17.603c1.945 7.279 8.551 12.095 15.753 12.095 1.388 0 2.8-.179 4.203-.554 8.683-2.32 13.86-11.273 11.539-19.961l-13.361-49.862c-3.693-13.785-12.519-16.679-19.272-16.679h-35.101c-15.813 0-28.679 12.865-28.679 28.679 0 8.621 3.828 16.601 10.289 21.988h-13.88c-8.996 0-16.314 7.318-16.314 16.314s7.318 16.315 16.313 16.315zm0-20.629h15.769c6.721 0 12.188-5.468 12.188-12.188v-1.618c0-2.247-1.256-4.306-3.253-5.335-5.621-2.893-9.112-8.582-9.112-14.848 0-9.196 7.482-16.679 16.679-16.679h35.102c2.707 0 5.756.602 7.681 7.784l13.359 49.858c.612 2.291-.753 4.653-3.044 5.266-2.287.613-4.654-.754-5.267-3.049l-5.91-22.054c-.703-2.623-3.08-4.447-5.795-4.447h-25.826c-3.238 0-5.892 2.569-5.997 5.806-.36 11.101-9.693 20.132-20.805 20.132h-15.769c-2.379 0-4.314-1.936-4.314-4.314s1.935-4.314 4.314-4.314zm34.623-194.127c-.35-3.296 2.038-6.25 5.333-6.601 85.348-9.062 158.425-34.425 217.203-75.384 36.327-25.314 57.782-50.341 67.968-64.077l-29.122 3.893c-3.287.442-6.303-1.868-6.742-5.152s1.868-6.303 5.152-6.742l42.365-5.663c3.276-.442 6.303 1.867 6.742 5.152l5.664 42.364c.439 3.284-1.867 6.303-5.152 6.742-3.284.432-6.303-1.869-6.742-5.152l-3.594-26.882c-11.14 14.734-33.313 40.021-69.678 65.363-60.456 42.128-135.415 68.193-222.797 77.472-.215.022-.429.033-.641.033-3.029 0-5.632-2.286-5.959-5.366zm441.063 277.929c0 3.313-2.687 6-6 6h-480c-3.313 0-6-2.687-6-6s2.687-6 6-6h480c3.313 0 6 2.687 6 6z"/></svg>