<?xml version="1.0" encoding="UTF-8" standalone="no"?>
<!-- Created with Inkscape (http://www.inkscape.org/) -->

<svg
   version="1.1"
   id="svg3438"
   xml:space="preserve"
   width="682.66669"
   height="682.66669"
   viewBox="0 0 682.66669 682.66669"
   xmlns="http://www.w3.org/2000/svg"
   xmlns:svg="http://www.w3.org/2000/svg"><defs
     id="defs3442"><clipPath
       clipPathUnits="userSpaceOnUse"
       id="clipPath3452"><path
         d="M 0,512 H 512 V 0 H 0 Z"
         id="path3450" /></clipPath></defs><g
     id="g3444"
     transform="matrix(1.3333333,0,0,-1.3333333,0,682.66667)"><g
       id="g3446"><g
         id="g3448"
         clip-path="url(#clipPath3452)"><g
           id="g3454"
           transform="translate(98.4941,365.791)"><path
             d="m 0,0 c -6.093,0 -10.617,-5.805 -8.955,-11.666 5.075,-17.898 21.538,-31.011 41.062,-31.011 19.526,0 35.988,13.113 41.063,31.011 C 74.832,-5.805 70.309,0 64.216,0 Z"
             style="fill:#000000;fill-opacity:1;fill-rule:nonzero;stroke:none"
             id="path3456" /></g><g
           id="g3458"
           transform="translate(160.8193,407.8525)"><path
             d="M 0,0 C 0,7.048 5.714,12.762 12.762,12.762 19.81,12.762 25.523,7.048 25.523,0 25.523,-7.048 19.81,-12.762 12.762,-12.762 5.714,-12.762 0,-7.048 0,0"
             style="fill:#000000;fill-opacity:1;fill-rule:nonzero;stroke:none"
             id="path3460" /></g><g
           id="g3462"
           transform="translate(74.8613,407.8525)"><path
             d="M 0,0 C 0,7.048 5.714,12.762 12.762,12.762 19.81,12.762 25.523,7.048 25.523,0 25.523,-7.048 19.81,-12.762 12.762,-12.762 5.714,-12.762 0,-7.048 0,0"
             style="fill:#000000;fill-opacity:1;fill-rule:nonzero;stroke:none"
             id="path3464" /></g><g
           id="g3466"
           transform="translate(110.6318,260.7959)"><path
             d="m 0,0 c 2.927,-39.647 19.126,-75.602 44.17,-103.441 21.097,-23.453 33.051,-53.708 33.051,-85.253 v -62.102 h 157.031 l 12.506,38.267 c 5.609,17.164 21.619,28.775 39.678,28.775 h 36.192 c 16.49,0 29.858,13.368 29.858,29.858 v 61.882 l 28.461,12.396 c 9.615,4.186 13.341,15.886 7.917,24.861 l -40.943,67.762 c 0,96.207 -77.991,174.198 -174.197,174.199 -16.447,0 -32.352,-2.259 -47.421,-6.484"
             style="fill:none;stroke:#000000;stroke-width:20;stroke-linecap:round;stroke-linejoin:round;stroke-miterlimit:10;stroke-dasharray:none;stroke-opacity:1"
             id="path3468" /></g><g
           id="g3470"
           transform="translate(130.6016,502)"><path
             d="m 0,0 c 66.607,0 120.603,-53.995 120.603,-120.602 0,-38.314 -17.871,-72.452 -45.726,-94.543 2.046,-10.982 7.161,-20.884 14.429,-28.78 C 84.39,-245.269 79.222,-246 73.88,-246 c -12.946,0 -24.903,4.22 -34.585,11.349 -12.318,-4.244 -25.536,-6.553 -39.295,-6.553 -66.606,0 -120.602,53.995 -120.602,120.602 C -120.602,-53.995 -66.606,0 0,0 Z"
             style="fill:none;stroke:#000000;stroke-width:20;stroke-linecap:round;stroke-linejoin:round;stroke-miterlimit:10;stroke-dasharray:none;stroke-opacity:1"
             id="path3472" /></g></g></g></g></svg>
