<svg id="Layer_1" viewBox="0 0 64 64" xmlns="http://www.w3.org/2000/svg" data-name="Layer 1"><path d="m53.745 19.097c.085.022.171.033.255.033.443 0 .848-.297.966-.745.141-.534-.178-1.081-.712-1.222-6.23-1.642-12.502-2.605-18.656-2.878-.645-1.346-2.009-2.285-3.598-2.285s-2.945.934-3.592 2.273c-6.207.263-12.483 1.23-18.667 2.891-.534.144-.85.691-.707 1.226.12.446.524.74.965.74.086 0 .173-.011.26-.034 1.376-.37 2.757-.698 4.14-.998-6.398 14.019-6.399 14.385-6.399 14.652 0 4.411 3.589 8 8 8s8-3.589 8-8c0-.271-.005-.65-6.668-15.241 3.568-.644 7.144-1.045 10.697-1.216.087 1.174.674 2.201 1.558 2.876l-.563 22.831h-1.527c-2.389 0-4.368 1.737-4.769 4.013-2.617.069-4.728 2.208-4.728 4.842v.146c0 .553.448 1 1 1h26c.552 0 1-.447 1-1v-.146c0-2.633-2.111-4.773-4.728-4.842-.401-2.275-2.381-4.013-4.769-4.013h-1.527l-.563-22.831c.881-.672 1.466-1.695 1.557-2.864 3.569.179 7.178.591 10.795 1.243-6.759 14.797-6.764 15.179-6.764 15.451 0 4.411 3.589 8 8 8s8-3.589 8-8c0-.269-.002-.639-6.518-14.913 1.422.302 2.844.636 4.263 1.01zm-37.745.312c2.001 4.395 4.482 9.895 5.531 12.341h-11.062c1.049-2.446 3.53-7.946 5.531-12.341zm0 19.341c-2.967 0-5.431-2.167-5.909-5h11.819c-.478 2.833-2.943 5-5.909 5zm32-19.091c2.001 4.395 4.482 9.895 5.531 12.341h-11.062c1.049-2.446 3.53-7.946 5.531-12.341zm0 19.341c-2.967 0-5.431-2.167-5.909-5h11.819c-.478 2.833-2.943 5-5.909 5zm-16-25c1.103 0 2 .897 2 2s-.897 2-2 2-2-.897-2-2 .897-2 2-2zm11.87 36h-23.74c.364-1.158 1.448-2 2.724-2h18.291c1.276 0 2.36.842 2.724 2zm-4.643-4h-14.453c.364-1.158 1.448-2 2.724-2h9.005c1.276 0 2.36.842 2.724 2zm-6.251-4h-1.95l.543-22.044c.144.016.284.044.432.044s.288-.028.432-.044z"/></svg>