<svg id="Layer_1" enable-background="new 0 0 60 60" viewBox="0 0 60 60" xmlns="http://www.w3.org/2000/svg"><path d="m25.49 5.6c-2.97 0-5.38 2.41-5.38 5.38s2.41 5.38 5.38 5.38 5.38-2.41 5.38-5.38-2.41-5.38-5.38-5.38zm0 8.76c-1.86 0-3.38-1.52-3.38-3.38s1.52-3.38 3.38-3.38 3.38 1.52 3.38 3.38-1.52 3.38-3.38 3.38z"/><path d="m46.09 16.36c3.13 0 5.68-2.55 5.68-5.68s-2.55-5.68-5.68-5.68-5.68 2.55-5.68 5.68 2.54 5.68 5.68 5.68zm0-9.36c2.03 0 3.68 1.65 3.68 3.68s-1.65 3.68-3.68 3.68-3.68-1.65-3.68-3.68 1.65-3.68 3.68-3.68z"/><path d="m51.78 31.34c.71-1.15.5-2.67-.53-3.57-1.7-1.49-5.83-5.34-7.31-9-.43-1.07-1.03-1.98-1.84-2.77-1.55-1.52-3.61-2.35-5.77-2.3-2.12.03-4.1.89-5.55 2.41-1.76 1.84-3.66 4.4-4.9 7.7-1.57-2.84-2.08-5.05-2.09-5.08v-.01c0-.01 0-.01 0-.02-.34-1.3-1.2-2.44-2.38-3.11-2.32-1.34-5.26-.64-6.71 1.58-2.9 4.46-7.71 14.04-7.26 28.12.02.54.46.97 1 .97h2.11l-.82 7.63c-.03.28.06.56.25.78.19.21.46.33.74.33h3c.47 0 .87-.32.98-.78l1.17-5.19 1.55 4.75c.13.41.52.69.95.69h3.35c.31 0 .6-.14.79-.38s.26-.56.19-.85l-1.68-6.98h.1c.3 0 .59-.14.78-.37s.26-.54.2-.83c-.02-.09-1.76-8.64-.31-17 .95 1.1 1.94 2.07 2.77 2.83-.02.79-.01 1.59.06 2.44 1.11 13.93-.77 19.78-.79 19.83-.1.31-.05.64.13.9s.49.42.81.42h3.73c.49 0 .91-.36.99-.84l1.43-8.9c.87 3.06 1.93 7.06 2.22 9.39.03.27.17.51.39.67.17.13.39.2.6.2.05 0 .1 0 .15-.01l3.42-.53c.28-.04.52-.2.68-.43s.21-.52.14-.79c-1.1-4.46-3.17-13.56-3.17-16.11 0-2.43 0-9.52 3.64-13.28 1.85 2.6 4.9 6.22 8.68 8.28-.16.34-.25.71-.25 1.1v20.25c0 .55.45 1 1 1s1-.45 1-1v-20.26c0-.27.18-.49.42-.56.07-.01.14-.02.2-.03.32.01.57.27.57.59v1.18c0 .55.45 1 1 1s1-.45 1-1v-1.18c-.02-.74-.33-1.4-.83-1.88zm-38.87 21.66h-1.08l.73-6.74h1.87zm7.52-.53h-1.35l-2.02-6.21h1.88zm-.17-31.19c-.07-.55-.58-.93-1.12-.86-.55.07-.93.58-.86 1.12.2 1.49.93 3 1.87 4.41-1.71 7.5-.74 15.36-.25 18.31h-10.49c-.19-13.01 4.25-21.84 6.96-26 .87-1.33 2.64-1.74 4.04-.94.71.41 1.23 1.09 1.43 1.87.06.28.83 3.45 3.24 7.19-.15.62-.26 1.27-.35 1.93-1.74-1.75-4.14-4.56-4.47-7.03zm18.51-1.46c-.27-.49-.87-.66-1.36-.4-.48.27-.66.87-.4 1.36.04.08.33.59.82 1.36-4.5 4.29-4.5 12.26-4.5 14.97 0 2.89 2.2 12.32 2.97 15.53l-1.36.21c-.79-4.59-3.27-12.56-3.38-12.92-.13-.42-.52-.7-.95-.7-.02 0-.05 0-.07 0-.46.03-.84.38-.92.84l-2 12.39h-1.59c.53-2.47 1.4-8.53.55-19.31-.59-7.45 2.75-12.63 5.65-15.67 1.08-1.13 2.55-1.77 4.14-1.8 1.62-.06 3.17.59 4.32 1.71 0 .01.08.08.08.08.54.53.99 1.21 1.31 2.02 1.59 3.92 5.6 7.8 7.85 9.76.32.28.36.76.1 1.09-.11.14-.26.24-.42.29-.07.01-.13.02-.2.03-.12.01-.25-.01-.36-.06-5.91-2.91-10.24-10.7-10.28-10.78z"/></svg>