<svg height="512" viewBox="0 0 64 64" width="512" xmlns="http://www.w3.org/2000/svg"><g id="Pencil-Writing_Tool-Writing-Draw-Ruler" data-name="Pencil-Writing Tool-Writing-Draw-Ruler"><path d="m33 2h-20a1 1 0 0 0 -1 1v58a1 1 0 0 0 1 1h20a1 1 0 0 0 1-1v-58a1 1 0 0 0 -1-1zm-13 58h-6v-3h3v-2h-3v-6h3v-2h-3v-6h3v-2h-3v-6h3v-2h-3v-6h3v-2h-3v-6h3v-2h-3v-6h3v-2h-3v-3h6zm4 0h-2v-56h2zm8-53h-4v2h4v2h-2v2h2v2h-4v2h4v2h-2v2h2v2h-4v2h4v2h-2v2h2v2h-4v2h4v2h-2v2h2v2h-4v2h4v2h-2v2h2v2h-4v2h4v2h-2v2h2v2h-4v2h4v3h-6v-56h6z"/><path d="m48 2h-6a4 4 0 0 0 -4 4v45a1 1 0 0 0 .14.51l6 10a1 1 0 0 0 1.72 0l6-10a1 1 0 0 0 .14-.51v-45a4 4 0 0 0 -4-4zm-8 16h2v32h-2zm5 41.06-1.23-2.06h2.46zm2.43-4.06h-4.86l-1.8-3h8.46zm-3.43-5v-32h2v32zm6 0h-2v-32h2zm0-34h-10v-4h10zm0-6h-10v-4a2.006 2.006 0 0 1 2-2h6a2.006 2.006 0 0 1 2 2z"/></g></svg>