<?xml version="1.0" encoding="UTF-8"?>
<svg xmlns="http://www.w3.org/2000/svg" viewBox="0 0 64 64" width="512" height="512"><g id="Icon"><path d="M59.26416,58H4.73584a1.99991,1.99991,0,0,1-1.73-3.00342l6.96-12.00049A2.00659,2.00659,0,0,1,11.6958,42H52.3042a2.00659,2.00659,0,0,1,1.73.99609l6.96,12A2.00015,2.00015,0,0,1,59.26416,58ZM52.30371,44H11.6958l-6.96,12H59.26416Zm-3.48-4H15.17627a1.99991,1.99991,0,0,1-1.73047-3.00342l5.79981-10,.001-.00146A2.00711,2.00711,0,0,1,20.97607,26H43.02393a2.00711,2.00711,0,0,1,1.72949.99512L50.5542,36.99658A1.99991,1.99991,0,0,1,48.82373,40ZM20.97607,27.99951l-5.7998,10L48.82373,38l-5.7998-10.00049L20.97559,28ZM39.544,24H24.45605a2.00056,2.00056,0,0,1-1.73046-3.00342L30.26953,7.98926,30.27,7.98877a2.00082,2.00082,0,0,1,3.46,0l7.54443,13.00732A2.00081,2.00081,0,0,1,39.544,24ZM31.13477,8.49121,32,8.99316,24.45605,22H39.544L32,8.99316Z"/></g></svg>
