<svg id="Layer_1" viewBox="0 0 512 512" xmlns="http://www.w3.org/2000/svg" data-name="Layer 1"><path d="m501 242.93h-39.775c.808-20.206 1.351-43.993-.066-69.724-.003-.051-.006-.102-.01-.151-1.24-16.126-5.449-23.79-16.68-30.374-7.426-4.354-19.197-7.569-31.689-10.765l-19.077-4.692c3.21-2.738 6.159-6.001 8.752-9.756 11.382-16.489 13.435-39.241 4.992-55.327-7.292-13.895-21.225-21.547-39.23-21.547s-31.938 7.652-39.23 21.547c-8.442 16.086-6.39 38.837 4.992 55.326 2.592 3.756 5.542 7.018 8.751 9.757l-19.14 4.707c-12.429 3.18-24.2 6.395-31.625 10.748-11.232 6.585-15.441 14.249-16.68 30.375-.004.05-.007.101-.01.151-1.417 25.725-.874 49.514-.066 69.724h-66.971v-5.251c0-10.615-8.636-19.251-19.25-19.251h-20.511v-20h72.555c8.792 0 15.946-7.153 15.946-15.946v-115.184c0-8.792-7.154-15.946-15.946-15.946h-190.086c-8.793 0-15.946 7.154-15.946 15.946v115.184c0 8.793 7.153 15.946 15.946 15.946h72.555v20h-20.51c-10.615 0-19.25 8.636-19.25 19.251v5.251h-72.741c-3.866 0-7 3.134-7 7v30c0 3.866 3.134 7 7 7h22v177.476c0 3.866 3.134 7 7 7h432c3.866 0 7-3.134 7-7v-177.476h22c3.866 0 7-3.134 7-7v-30c0-3.866-3.134-7-7-7zm-63.611-88.172c6.174 3.619 8.794 6.383 9.796 19.294 1.393 25.362.835 48.904.028 68.878h-17.744v-44.021c0-3.866-3.134-7-7-7s-7 3.134-7 7v44.021h-35.57l13.765-19.283c1.041-1.458 1.482-3.259 1.236-5.032l-11.05-79.397 25.523 6.277c8.631 2.208 21.674 5.545 28.014 9.264zm-70.371-17.702c.281-.006.561-.012.842-.014.103 0 .205.01.309.01h.082c.105 0 .209-.01.314-.011.284.002.568.008.852.014l11.235 80.726-12.434 17.418-12.434-17.418 11.234-80.726zm-25.635-68.409c4.825-9.194 14.104-14.053 26.834-14.053s22.009 4.859 26.834 14.053c6.03 11.488 4.298 28.676-4.117 40.868-5.931 8.593-13.828 13.373-22.292 13.523-.287-.002-.574-.002-.861 0-8.45-.148-16.349-4.929-22.281-13.523-8.416-12.192-10.147-29.379-4.118-40.868zm-52.133 105.404c1.002-12.911 3.623-15.675 9.797-19.295 6.339-3.718 19.382-7.055 27.95-9.247l25.585-6.292-11.049 79.396c-.247 1.773.195 3.574 1.236 5.032l13.765 19.283h-35.569v-44.021c0-3.866-3.134-7-7-7s-7 3.134-7 7v44.021h-17.744c-.807-19.977-1.365-43.521.028-68.878zm-238.303 10.376c-1.055 0-1.946-.892-1.946-1.946v-115.184c0-1.055.891-1.946 1.946-1.946h190.086c1.055 0 1.946.891 1.946 1.946v115.184c0 1.055-.891 1.946-1.946 1.946h-72.555v-32.014c0-12.4-10.088-22.488-22.488-22.488s-22.488 10.088-22.488 22.488v32.014h-72.556zm86.555-32.014c0-4.681 3.808-8.488 8.488-8.488s8.488 3.808 8.488 8.488v66.014h-16.977v-66.014zm-39.761 85.265c0-2.896 2.355-5.251 5.25-5.251h85.998c2.895 0 5.25 2.355 5.25 5.251v5.251h-96.499v-5.251zm367.26 219.727h-418.001v-170.476h418v170.476zm29-184.476h-476.001v-16h476v16z"/></svg>