<?xml version="1.0" encoding="UTF-8"?>
<svg xmlns="http://www.w3.org/2000/svg" viewBox="0 0 64 64" width="512" height="512"><g id="Artboard_01" data-name="Artboard 01"><path d="M41.716,4.263a12.023,12.023,0,0,0-4.154-2.321,16.9,16.9,0,0,0-11.124,0A12.069,12.069,0,0,0,22.357,4.21h0c-.048.036-.1.086-.143.123l-.037.031C18.242,7.472,15,17.783,15,20.816c0,4.109,2.5,9.223,7.433,15.2Q16.7,41.28,9.371,47.223A1,1,0,0,0,9,48V62a1,1,0,0,0,1.574.818A217.638,217.638,0,0,0,32.017,45.93,215.325,215.325,0,0,0,53.426,62.818,1,1,0,0,0,55,62V48a1,1,0,0,0-.371-.777c-4.45-3.6-8.923-7.463-13.013-11.21C46.467,30.128,49,24.988,49,20.816,49,17.755,45.7,7.264,41.716,4.263ZM27.1,3.83a14.885,14.885,0,0,1,9.8,0c2.323.813,3.909,1.975,4.585,3.362.786,1.609.66,3.7-.319,6.226C38.222,11.082,32.707,11,32,11s-6.2.082-9.149,2.4c-.984-2.531-1.114-4.623-.337-6.214C23.19,5.805,24.776,4.643,27.1,3.83ZM40.307,15.324a54.5,54.5,0,0,1-8.292,11.2,54.206,54.206,0,0,1-8.3-11.213C25.509,13.435,30.217,13,32,13S38.521,13.437,40.307,15.324ZM17,20.816c0-1.71,1.3-6.284,3.082-10.026.547,4.405,4.034,10.085,10.566,17.2q-2.989,3.163-6.741,6.672C19.388,29.158,17,24.382,17,20.816ZM11,48.477C31.841,31.555,42.868,18.91,43.908,10.764,45.7,14.51,47,19.1,47,20.816c0,4.142-3.547,16.179-36,39.253Zm42,0V60.069a208.6,208.6,0,0,1-19.511-15.5q3.888-3.653,6.833-7.025C44.313,41.194,48.662,44.951,53,48.477Z"/></g></svg>
