<?xml version="1.0" encoding="UTF-8" standalone="no"?>
<!-- Created with Inkscape (http://www.inkscape.org/) -->

<svg
   version="1.1"
   id="svg159"
   xml:space="preserve"
   width="682.66669"
   height="682.66669"
   viewBox="0 0 682.66669 682.66669"
   xmlns="http://www.w3.org/2000/svg"
   xmlns:svg="http://www.w3.org/2000/svg"><defs
     id="defs163"><clipPath
       clipPathUnits="userSpaceOnUse"
       id="clipPath173"><path
         d="M 0,512 H 512 V 0 H 0 Z"
         id="path171" /></clipPath></defs><g
     id="g165"
     transform="matrix(1.3333333,0,0,-1.3333333,0,682.66667)"><g
       id="g167"><g
         id="g169"
         clip-path="url(#clipPath173)"><g
           id="g175"
           transform="translate(427.917,177.3896)"><path
             d="m 0,0 c -4.482,-4.483 -11.78,-4.484 -16.263,0 -4.484,4.484 -4.484,11.78 0,16.264 4.484,4.483 11.78,4.483 16.263,0 C 4.484,11.78 4.484,4.484 0,0 m 10.607,26.87 c -10.334,10.332 -27.143,10.333 -37.477,0 -3.242,-3.242 -5.465,-7.122 -6.673,-11.24 H -96.427 V 128.813 L -32.61,64.988 c 4.342,-4.345 10.122,-6.738 16.273,-6.738 9.104,0 17.115,5.142 20.908,13.417 3.793,8.276 2.457,17.702 -3.484,24.597 l -29.697,34.494 c -2.704,3.14 -7.44,3.492 -10.578,0.79 -3.138,-2.702 -3.493,-7.438 -0.79,-10.576 l 29.7,-34.498 c 3.111,-3.61 1.715,-7.462 1.214,-8.557 -0.502,-1.095 -2.509,-4.667 -7.273,-4.667 -2.143,0 -4.155,0.833 -5.666,2.343 l -71.501,71.511 c -3.013,3.012 -7.499,3.906 -11.439,2.275 -3.939,-1.631 -6.484,-5.442 -6.484,-9.709 V 15.63 h -14.02 c -4.143,0 -7.5,-3.358 -7.5,-7.5 0,-4.142 3.357,-7.5 7.5,-7.5 h 14.02 v -137.4 c 0,-7.87 5.314,-14.796 12.935,-16.846 l 14.898,-3.979 c 1.213,-0.363 1.797,-1.121 1.797,-2.355 0,-1.345 -1.09,-2.44 -2.43,-2.44 h -39.98 c -1.26,0 -2.302,0.948 -2.426,2.202 l -16.781,171.384 c -0.931,9.723 -9.408,17.345 -19.143,17.345 -9.943,0 -18.173,-7.463 -19.144,-17.36 l -16.779,-171.367 c -0.124,-1.256 -1.167,-2.204 -2.427,-2.204 h -39.97 c -1.538,0.059 -2.44,0.901 -2.44,2.44 0,1.1 0.748,2.07 1.805,2.354 l 14.917,3.985 c 7.606,2.05 12.918,8.976 12.918,16.841 v 82.213 c 0,4.142 -3.357,7.5 -7.5,7.5 -4.142,0 -7.5,-3.358 -7.5,-7.5 v -82.213 c 0,-1.099 -0.749,-2.069 -1.805,-2.354 l -14.914,-3.983 c -7.608,-2.046 -12.921,-8.973 -12.921,-16.843 0,-9.466 7.938,-17.492 17.44,-17.44 h 39.97 c 9.012,0 16.473,6.766 17.354,15.74 l 16.78,171.368 c 0.213,2.179 2.027,3.823 4.216,3.823 2.139,0 4.013,-1.684 4.216,-3.822 l 16.78,-171.372 c 0.881,-8.971 8.342,-15.737 17.354,-15.737 h 39.98 c 9.611,0 17.43,7.824 17.43,17.44 0,7.763 -5.413,14.866 -12.925,16.846 l -14.887,3.977 c -1.071,0.288 -1.818,1.257 -1.818,2.357 V 0.63 h 62.885 c 1.207,-4.116 3.431,-7.995 6.672,-11.236 10.333,-10.334 27.144,-10.334 37.477,0 10.332,10.332 10.332,27.144 0,37.476 M -324.589,-3.457 c -1.641,-6.125 -7.966,-9.771 -14.085,-8.131 -6.125,1.641 -9.772,7.959 -8.132,14.084 1.621,6.051 8.051,9.748 14.084,8.131 6.126,-1.641 9.774,-7.959 8.133,-14.084 m 127.534,256.44 v 32.127 c 0,0.175 0.011,0.347 0.013,0.52 h 12.915 c 4.143,0 7.5,3.358 7.5,7.5 0,4.142 -3.357,7.5 -7.5,7.5 h -9.226 c 5.692,11.247 17.356,18.98 30.798,18.98 19.024,0 34.5,-15.476 34.5,-34.5 v -32.127 c 0,-10.13 -8.242,-18.373 -18.373,-18.373 h -32.255 c -10.13,0 -18.372,8.243 -18.372,18.373 m -92.901,40.138 c -0.003,-2.941 -1.124,-5.882 -3.363,-8.121 -4.483,-4.484 -11.781,-4.482 -16.263,0 -4.484,4.484 -4.484,11.78 0,16.264 4.483,4.483 11.779,4.483 16.263,0 2.24,-2.24 3.36,-5.181 3.363,-8.123 0,-0.003 -10e-4,-0.007 -10e-4,-0.011 0,-0.003 10e-4,-0.006 10e-4,-0.009 m 232.977,-44.65 c 1.662,6.201 8.084,9.738 14.084,8.131 6.126,-1.641 9.774,-7.959 8.133,-14.084 -1.615,-6.032 -8.066,-9.744 -14.085,-8.132 -6.125,1.641 -9.772,7.959 -8.132,14.085 M -228.677,52.65 v -72.207 c 0,-4.142 3.358,-7.5 7.5,-7.5 4.143,0 7.5,3.358 7.5,7.5 v 80.868 l 22.3,12.874 c 3.587,2.071 4.816,6.658 2.745,10.245 -2.07,3.588 -6.66,4.817 -10.245,2.745 l -14.8,-8.544 v 61.039 c 0,4.266 -2.547,8.077 -6.487,9.709 -3.942,1.631 -8.435,0.738 -11.446,-2.276 l -71.518,-71.527 c -1.458,-1.471 -3.557,-2.326 -5.639,-2.326 -4.763,0 -6.772,3.573 -7.274,4.667 -0.502,1.096 -1.899,4.949 1.208,8.56 l 80.907,93.978 c 6.187,7.178 15.167,11.295 24.639,11.295 h 20.23 c 7.995,0 14.5,6.505 14.5,14.5 v 13.36 h 24 v -13.36 c 0,-3.946 1.589,-7.525 4.157,-10.143 l -4.818,-2.782 c -3.587,-2.071 -4.815,-6.658 -2.744,-10.245 2.093,-3.625 6.713,-4.789 10.246,-2.744 l 19.765,11.414 h 8.134 c 9.465,0 18.442,-4.117 24.627,-11.292 l 28.359,-32.942 c 1.483,-1.723 3.579,-2.607 5.686,-2.607 1.734,0 3.475,0.597 4.891,1.816 3.139,2.703 3.493,7.438 0.79,10.577 l -28.361,32.945 c -5.878,6.819 -13.486,11.733 -21.888,14.346 l 37.569,21.698 c 3.171,-3.025 7.064,-5.229 11.415,-6.394 13.749,-3.684 28.725,4.817 32.456,18.739 3.782,14.114 -4.624,28.673 -18.739,32.455 -14.117,3.783 -28.675,-4.624 -32.455,-18.738 -1.165,-4.347 -1.205,-8.815 -0.173,-13.07 l -56.332,-32.533 h -7.585 v 14.688 c 13.079,4.52 22.502,16.949 22.502,31.545 v 32.127 c 0,27.295 -22.206,49.5 -49.501,49.5 -21.873,0 -40.465,-14.267 -46.993,-33.98 h -66.49 c -1.208,4.118 -3.431,7.998 -6.673,11.24 -10.334,10.333 -27.143,10.331 -37.477,0 -10.332,-10.332 -10.332,-27.144 0,-37.476 10.333,-10.334 27.143,-10.334 37.477,0 3.241,3.241 5.465,7.12 6.672,11.236 h 63.998 c -0.002,-0.173 -0.013,-0.345 -0.013,-0.52 v -32.127 c 0,-14.594 9.421,-27.023 22.498,-31.544 V 206.75 h -19.73 c -13.841,0 -26.963,-6.015 -36.004,-16.506 l -80.91,-93.981 c -5.938,-6.899 -7.27,-16.325 -3.474,-24.599 3.795,-8.274 11.807,-13.414 20.908,-13.414 6.016,0 12.038,2.475 16.264,6.738 l 63.826,63.835 V 69.971 l -88.765,-51.249 c -3.105,2.961 -6.969,5.208 -11.397,6.395 -13.975,3.745 -28.721,-4.801 -32.455,-18.739 -3.721,-13.885 4.75,-28.708 18.737,-32.456 13.763,-3.688 28.632,4.469 32.456,18.739 1.188,4.429 1.172,8.901 0.16,13.072 z"
             style="fill:#000000;fill-opacity:1;fill-rule:nonzero;stroke:none"
             id="path177" /></g></g></g></g></svg>
