<?xml version="1.0" encoding="UTF-8" standalone="no"?>
<!-- Created with Inkscape (http://www.inkscape.org/) -->

<svg
   version="1.1"
   id="svg699"
   xml:space="preserve"
   width="682.66669"
   height="682.66669"
   viewBox="0 0 682.66669 682.66669"
   xmlns="http://www.w3.org/2000/svg"
   xmlns:svg="http://www.w3.org/2000/svg"><defs
     id="defs703"><clipPath
       clipPathUnits="userSpaceOnUse"
       id="clipPath713"><path
         d="M 0,512 H 512 V 0 H 0 Z"
         id="path711" /></clipPath></defs><g
     id="g705"
     transform="matrix(1.3333333,0,0,-1.3333333,0,682.66667)"><g
       id="g707"><g
         id="g709"
         clip-path="url(#clipPath713)"><g
           id="g715"
           transform="translate(338.833,330.6665)"><path
             d="M 0,0 C -4.142,0 -7.5,3.358 -7.5,7.5 -7.5,11.643 -4.142,15 0,15 4.143,15 7.5,11.643 7.5,7.5 7.5,3.358 4.143,0 0,0"
             style="fill:#000000;fill-opacity:1;fill-rule:nonzero;stroke:none"
             id="path717" /></g><g
           id="g719"
           transform="translate(368.833,330.6665)"><path
             d="M 0,0 C -4.142,0 -7.5,3.358 -7.5,7.5 -7.5,11.643 -4.142,15 0,15 4.143,15 7.5,11.643 7.5,7.5 7.5,3.358 4.143,0 0,0"
             style="fill:#000000;fill-opacity:1;fill-rule:nonzero;stroke:none"
             id="path721" /></g><g
           id="g723"
           transform="translate(308.833,330.6665)"><path
             d="M 0,0 C -4.142,0 -7.5,3.358 -7.5,7.5 -7.5,11.643 -4.142,15 0,15 4.143,15 7.5,11.643 7.5,7.5 7.5,3.358 4.143,0 0,0"
             style="fill:#000000;fill-opacity:1;fill-rule:nonzero;stroke:none"
             id="path725" /></g><g
           id="g727"
           transform="translate(175.877,368.7983)"><path
             d="m 0,0 c 14.104,77.19 81.693,135.702 162.956,135.702 91.496,0 165.667,-74.172 165.667,-165.667 0,-43.929 -17.104,-83.858 -45.008,-113.508 7.821,-21.056 24.242,-37.931 45.008,-46.338 -9.265,-3.751 -19.39,-5.821 -30,-5.821 -20.987,0 -40.084,8.086 -54.353,21.307 -15.704,-8.864 -32.999,-15.228 -51.349,-18.578"
             style="fill:none;stroke:#000000;stroke-width:15;stroke-linecap:round;stroke-linejoin:round;stroke-miterlimit:10;stroke-dasharray:none;stroke-opacity:1"
             id="path729" /></g><g
           id="g731"
           transform="translate(154.0957,175.5386)"><path
             d="m 0,0 h 20.473 c 8.92,0 16.15,-7.231 16.15,-16.15 0,-8.92 -7.23,-16.15 -16.15,-16.15 C 16.049,-32.3 0,-32.372 0,-32.372 v 60 h 17.429 c 7.625,0 13.806,-6.181 13.806,-13.806 0,-7.625 -6.181,-13.806 -13.806,-13.806"
             style="fill:none;stroke:#000000;stroke-width:15;stroke-linecap:round;stroke-linejoin:round;stroke-miterlimit:10;stroke-dasharray:none;stroke-opacity:1"
             id="path733" /></g><g
           id="g735"
           transform="translate(124.623,143.1665)"><path
             d="m 0,0 -22.529,59.155 c -0.461,1.126 -2.054,1.127 -2.517,0.003 L -47.371,0"
             style="fill:none;stroke:#000000;stroke-width:15;stroke-linecap:round;stroke-linejoin:round;stroke-miterlimit:10;stroke-dasharray:none;stroke-opacity:1"
             id="path737" /></g><g
           id="g739"
           transform="translate(119.0117,157.8994)"><path
             d="M 0,0 H -36.2"
             style="fill:none;stroke:#000000;stroke-width:15;stroke-linecap:round;stroke-linejoin:round;stroke-miterlimit:10;stroke-dasharray:none;stroke-opacity:1"
             id="path741" /></g><g
           id="g743"
           transform="translate(266.9551,198.043)"><path
             d="m 0,0 c -4.788,3.235 -10.561,5.124 -16.773,5.124 -16.569,0 -30,-13.432 -30,-30 0,-16.569 13.431,-30 30,-30 6.729,0 12.263,2.215 16.464,5.957 0.87,0.773 1.682,1.613 2.435,2.512"
             style="fill:none;stroke:#000000;stroke-width:15;stroke-linecap:round;stroke-linejoin:round;stroke-miterlimit:10;stroke-dasharray:none;stroke-opacity:1"
             id="path745" /></g><g
           id="g747"
           transform="translate(173.167,338.8335)"><path
             d="m 0,0 c -91.495,0 -165.667,-74.171 -165.667,-165.667 0,-43.929 17.105,-83.857 45.009,-113.508 -7.821,-21.056 -24.244,-37.931 -45.009,-46.337 9.265,-3.751 19.39,-5.821 30,-5.821 20.987,0 40.083,8.085 54.354,21.307 24.022,-13.56 51.76,-21.307 81.313,-21.307 91.495,0 165.666,74.171 165.666,165.666 C 165.666,-74.171 91.495,0 0,0 Z"
             style="fill:none;stroke:#000000;stroke-width:15;stroke-linecap:round;stroke-linejoin:round;stroke-miterlimit:10;stroke-dasharray:none;stroke-opacity:1"
             id="path749" /></g></g></g></g></svg>
