<svg xmlns="http://www.w3.org/2000/svg" version="1.1" xmlns:xlink="http://www.w3.org/1999/xlink" width="512" height="512" x="0" y="0" viewBox="0 0 64 64" style="enable-background:new 0 0 512 512" xml:space="preserve" class=""><g><path fill="#000000" d="M32.2 1c-.7 0-1.3.6-1.3 1.3v9.9c0 .7.6 1.3 1.3 1.3s1.3-.6 1.3-1.3V2.3c0-.7-.6-1.3-1.3-1.3zM62.1 31h-9.9c-.7 0-1.3.6-1.3 1.3s.6 1.3 1.3 1.3h9.9c.7 0 1.3-.6 1.3-1.3s-.6-1.3-1.3-1.3zM32.2 50.5c-.7 0-1.3.6-1.3 1.3v9.9c0 .7.6 1.3 1.3 1.3s1.3-.6 1.3-1.3v-9.9c0-.7-.6-1.3-1.3-1.3zM11.7 31H1.9c-.7 0-1.3.6-1.3 1.3s.6 1.3 1.3 1.3h9.9c.7 0 1.3-.6 1.3-1.3-.1-.7-.7-1.3-1.4-1.3zM51.1 13.3C46.9 9 41.4 6.2 35.5 5.5v2.6c5.2.7 10 3.2 13.8 7C53 18.9 55.4 23.8 56 29h2.6c-.6-5.9-3.2-11.4-7.5-15.7zm-43 22.2H5.5C7.1 47.6 16.8 57.2 29 58.6V56C18.2 54.7 9.6 46.2 8.1 35.5zm5.2-22.6c-4.5 4.4-7.2 10-7.9 16.1H8c.7-5.4 3.1-10.4 7.1-14.3C18.9 11 23.7 8.6 29 8V5.4c-5.9.7-11.4 3.3-15.7 7.5zm42.6 22.6C54.4 46.1 46 54.4 35.5 55.9v2.6c12-1.6 21.5-11 23.1-23zM45 39c-1.2-2.7-3.9-3.7-6.7-4.5-2.2-.6-2.2-1.4-2.1-2.2 0-.1.3-.4.4-.6l.3-.3.1-.1c.6-.8 1.2-1.7 1.5-2.7.5-.2.9-.6 1.2-1.1.4-.8.6-1.7.6-2.7s-.5-1.5-.9-1.8c.1-1.4-.2-2.6-1-3.7-1.4-1.9-3.8-3-6.5-3s-5.2 1.1-6.5 3c-.8 1-1.1 2.2-1 3.7-.4.3-.9.8-.9 1.8s.2 1.9.6 2.7c.3.5.7.9 1.2 1.1.3.9.8 1.9 1.5 2.6.1.1.2.3.3.4s.4.5.4.6c.2.9.1 1.6-2.1 2.3-2.4.7-5.6 2-6.7 4.5-.4.9-.4 1.9-.4 2.9v.6c0 1.2.9 1.8 1.3 2h.1c.4.3.9.6 1.5.8 3 1.4 6.6 2.1 10.4 2.1 2.3 0 4.6-.3 6.8-.8 1.6-.4 3.8-.9 5.3-2l.2-.1c.4-.2 1.3-.8 1.3-2v-.7c.2-.8.3-1.8-.2-2.8zm-1.9 2.8V42.4s-.1.1-.2.1l-.3.2c-1.1.9-3.1 1.3-4.5 1.7-2 .5-4.1.8-6.3.8-3.4 0-6.7-.6-9.4-1.9-.4-.2-.8-.4-1.2-.7h-.1c-.1-.1-.1-.1-.2-.1v-.7c0-.7 0-1.4.2-1.8.6-1.3 2.4-2.4 5.2-3.2 2.9-.8 4.2-2.5 3.7-4.9-.1-.8-.6-1.3-1-1.7 0-.2-.1-.2-.2-.3-.5-.6-.9-1.3-1.1-2l-.3-1-1-.4c-.3-.5-.4-1-.4-1.5l1-.6-.2-1.4c-.1-.9.1-1.6.5-2.2.9-1.3 2.7-2 4.7-2s3.7.8 4.7 2c.4.6.6 1.3.5 2.2l-.2 1.4 1 .6c0 .6-.1 1.1-.4 1.5l-1 .3-.3 1c-.2.7-.6 1.4-1.1 2l-.1.2-.2.2c-.4.4-.8 1-1 1.7-.3 1.7.1 3.9 3.8 4.9 2.2.6 4.4 1.4 5.2 3.2.2.4.2 1.1.2 1.8z" opacity="1" data-original="#3b4a52" class=""></path></g></svg>