<svg id="Layer_1" enable-background="new 0 0 500 500" height="512" viewBox="0 0 500 500" width="512" xmlns="http://www.w3.org/2000/svg"><path d="m7.74 460.93c-4.28 0-7.74-3.49-7.74-7.77s3.46-7.74 7.74-7.74h85.29c-35.8-28.54-17.35-106.27-17.38-106.41-10.15-16.89-7.2-46.06 4.45-75.66 11.28-28.54 31.69-59.92 56.04-78.66h.03l-.03-.03c12.98-10.09 27.1-16.95 41.73-18.79l18.14-23.73c2.69-3.54 7.54-3.97 11-1.33l13.24 9.84c10.74-15.36 27.75-27.75 46.12-30.56 32.77-5.05 61.17 36.65 61.17 68.6 0 9.98-2.55 20.01-7.34 28.77 7.71 3.46 13.86 6.15 18.65 7.99 20.81 7.97 30.9 26.87 24.75 43.74-5.19 14.29-19.96 21.09-36.82 17.92 5.02 7.68 9.47 16.64 13.75 26.14 14 31.24 21.32 47.25 26.93 59.58l12.98 26.16c3.74-2.27 8.65-.96 10.8 2.89.68 1.16 1.19 2.27 1.73 3.46 2.69 5.75 6.6 14.2 36.54 16.04 10.29.62 19.67 3.6 23.81 11.74 1.98 3.85 2.32 8.05 1.5 12.3h37.42c4.28 0 7.77 3.46 7.77 7.74s-3.49 7.77-7.77 7.77zm165.37-15.51h151.97v-21.26c0-1.73.57-3.32 1.53-4.59l-.11-.23c-5.87 1.73-11.06 2.86-14.68 3.09-3.74.23-7.03-2.27-7.94-5.75-1.3-4.17-3.46-11.28-5.41-17.72-5.07-16.64-8.56-28.09-15.08-47.06l-79 70.38c-11.38 10.13-20.39 17.73-31.28 23.14zm167.47 0h98.08c.65-1.45 1.5-4.14.91-5.27-.96-1.9-6.66-3.06-10.97-3.32-31.41-1.93-41.64-10.97-46.69-19.19-12.3 8.73-26.42 12.98-41.33 14zm-244.32-317.45c5.33.11 8.87 5.41 7.12 10.32l9.04-13.18-22.82-17.75c-3.4-2.75-4.03-7.68-1.19-11.08l18.96-22.65c2.75-3.29 7.63-3.71 10.91-.99 3.29 2.75 3.71 7.63.96 10.91l-13.8 16.5 22.22 17.32c3.37 2.61 3.97 7.46 1.39 10.83l-27.27 39.8c-2.38 3.51-7.2 4.42-10.74 2.01-3.51-2.41-4.42-7.23-2.01-10.74l12.13-17.74c-1.39 1.22-3.2 1.93-5.19 1.9l-15.14-.17c-19.93 0-36.08-16.16-36.08-36.09 0-17.97 13.21-33.08 30.73-35.66 1.84-18.31 17.29-32.43 35.89-32.43 19.05 0 34.75 14.77 36 33.62 20.98-1.73 39.03 14.88 39.03 35.97 0 19.93-16.16 36.08-36.09 36.08l-15.76-.43c-4.28-.11-7.63-3.69-7.51-7.94.11-4.25 3.66-7.63 7.94-7.51 7.43.2 6.66.37 15.34.37 18.28 0 27.47-22.22 14.54-35.15-6.04-6.04-15.25-7.74-23.02-4.22-5.92 2.66-12.42-2.78-10.63-9.13 3.63-12.98-6.09-26.16-19.84-26.16-11.88 0-21.32 10.09-20.52 21.97l.17 3.03c-.34 4.28-4.08 7.46-8.33 7.09-19.28-1.62-29.88 21.6-16.41 35.06 3.74 3.71 8.87 6.01 14.57 6.01zm249.03 268.07 12.95-6.18-4.65-10.2-27.18-60.12c-7.65-17.01-15.62-31.89-25.91-38.21-9.27-5.7-21.77-4.2-40.17 9.81l-85.41 65.2c-.82.62-1.76 1.08-2.72 1.33l-28.26 23.64c-3.29 2.72-8.16 2.24-10.86-1.05-2.72-3.29-2.24-8.16 1.05-10.89l17.55-14.71c-19.16 1.79-45.84 3.32-62.5-4.08-3.83 22.59-4.93 50.77 3.91 69.87 5.64 12.16 14.57 18.57 27.27 18.74 19.87.28 32.63-1.76 43.06-6.32 10.4-4.51 19.16-11.91 30.67-22.14l87.65-78.07c4.02-3.6 10.57-2.04 12.44 3.2 10.66 30.27 14.48 43.74 22.56 70.13 7.74-1.84 19.84-6.18 28.55-9.95zm22.5 12.27-2.35-4.76c-7.29 3.94-16.36 7.85-24.24 10.83l.77 1.62c9.07-.85 17.77-3.18 25.82-7.69zm-132.2-246.27 10.29 7.65c6.24-2.98 10.26-4.85 14.51-6.32 4.22-1.47 7.99-2.24 13.58-3 3.23-.45 6.24 1.19 7.77 3.86l5.84 8.79c8.22 11.68 13.58 15.73 24.09 21.63 2.1-15.85-4.99-33.31-15.17-45.27-7.71-9.07-17.8-15.51-27.84-13.97-14.26 2.18-27.61 12.33-35.92 24.35zm21.96 19.28 4.45 10.35c17.6 7.51 32.15 14.03 44.02 19.39l.79-1.39c-18.14-10.09-23.33-14.71-34.95-32.29-.23-.31-.43-.62-.62-.94-5.13.99-8.33 2.35-13.69 4.88zm-4.19 23.47-29.91-12.05-11.11-4.59c-3.88-1.62-7.14-3-9.35-4-19.56-7.6-39.54-1.08-57.32 12.76l-.03-.03c-22.37 17.43-40.68 45.69-51.11 72.11-10.54 26.73-13.55 51.99-4.51 63.61h-.02c10.6 13.35 62.05 6.6 78.72 4.62l45.3-79.23c2.24-3.85 5.1-7.11 8.45-9.67l-25.2-9.64c-4-1.53-5.98-6.01-4.48-10.01 1.53-4 6.01-6.01 10.01-4.48l56.64 21.69 63.18 23.98c30.5 11.57 37.3-19.76 10.74-29.96-6.86-2.64-16.24-6.86-28.83-12.56-13.21-5.94-30.02-13.54-51.17-22.55zm-49.69-47.2-6.72 8.82c9.75 1.79 12.76 4.03 21.37 7.2l13.66 5.53c-5.56-4.42-7.57-6.35-13.92-10.86zm50.65 102.93c-5.78-1.87-10.15-5.16-17.83-2.44-3.69 1.33-6.92 3.94-9.01 7.63l-31.61 55.19 55.08-42.04c7.14-5.47 13.78-9.41 19.93-12.08z"/></svg>