<svg id="Layer_1" enable-background="new 0 0 100 100" viewBox="0 0 100 100" xmlns="http://www.w3.org/2000/svg"><path d="m23.8239346 97.5c-.1157169 0-.2324314-.01297-.3501434-.0399017-.8239803-.1935272-1.3357277-1.0175095-1.143198-1.8414917 1.4803734-6.324501 1.9482269-11.1945724 1.8554535-19.3007126-.0229435-1.5970917-.2563725-1.9681778-2.3721886-4.8581009-.4868069-.6643677-1.0574093-1.4434586-1.7237759-2.3801651-16.693105-23.424614-11.7542048-40.0254459-7.3240576-47.8358116 7.0158129-12.371192 22.0779123-19.8468777 37.4961405-18.6109057 15.6616325 1.2594147 27.9585075 10.9107704 33.7383461 26.4796295 1.8873749 5.0865383 1.53125 10.8204899-1.090332 17.5066128l7.5993881 11.1970673c1.2060394 1.7856255 1.3387146 3.9932175.3581161 5.9075279-.9776001 1.9083252-2.8400421 3.086441-4.9817886 3.1492844l-1.1122818.0329208v3.1432953c0 .7810898-.4189682 1.5122986-1.0943146 1.9103241l-.2563705.1436462.3631058.4199753c.7521591.8788452.7062683 2.1956177-.1007538 3.0016403l-1.0604019 1.1052933c.6085129 1.2150269.9317169 2.54776.9317169 3.8745117 0 2.5597229-1.1302261 4.997757-3.1004028 6.6886139-1.9482269 1.6718979-4.4391251 2.3771744-7.0108261 1.9801483l-8.9071732-1.3816147-.7561493 8.3146286c-.0778122.8429337-.8389473 1.4514465-1.6649208 1.3875961-.8429375-.0768051-1.4644127-.8219833-1.3876038-1.664917l.9037895-9.9406509c.0389023-.4219589.2493858-.8080139.5825691-1.0693741.3341827-.2603683.7591438-.368103 1.1791115-.3062515l10.5172348 1.6320038c1.6758957.25737 3.2879486-.1955261 4.5478592-1.2778702 1.2728806-1.0913315 2.0320206-2.7223358 2.0320206-4.3623123 0-.9965591-.275322-1.967186-.8169937-2.8869324-.4858093-.8519135-.3760834-1.8943558.262352-2.6125946l1.0224991-1.0643921-.5346909-.6174927c-.4349365-.5157318-.6134949-1.1751175-.5027695-1.8245239.1117249-.6484146.4987793-1.2100372 1.0633926-1.5412292l.7232285-.4060059v-4.133873c0-.8289642.6593857-1.5073051 1.4873581-1.5312462l2.5986328-.0758133c1.0075302-.0299263 1.8843842-.584568 2.345253-1.4833679.4638672-.9057808.4010162-1.950222-.1685867-2.79216l-8.0562592-11.8709183c-.2892914-.4264526-.3451538-.9696236-.147644-1.4459572 2.5926514-6.2701378 3.0375595-11.5167847 1.3596725-16.0392056-5.3479004-14.4047106-16.6871185-23.3313421-31.1107826-24.4914998-14.2421074-1.1481871-28.1440506 5.7135029-34.5852709 17.0681858-7.0277834 12.390646-4.4870081 28.2103901 7.1544714 44.5463638.6573906.9237366 1.2200127 1.6918564 1.7008343 2.3482513 2.1886387 2.988678 2.9258327 3.9952087 2.9637394 6.6277618.0827961 7.2771683-.20051 12.6240692-1.9352589 20.0389099-.1655941.7062704-.7950535 1.1830999-1.4913463 1.1830999zm57.6727085-24.1199112c-.0079803.0079803-.0159607.0169601-.023941.0249405z"/></svg>