<svg id="Image" height="512" viewBox="0 0 64 64" width="512" xmlns="http://www.w3.org/2000/svg"><g><path d="m44 30v-9c0-1.9-2.088-5.27-5.543-6.955.075-.279.144-.562.174-.855l.339-3.259c.307-2.943-1.821-5.59-4.743-5.901-1.41-.149-2.793.261-3.897 1.155-1.116.903-1.813 2.191-1.962 3.626l-.339 3.26c-.059.568-.026 1.125.085 1.657-5.034 1.269-8.114 3.999-8.114 7.272 0 2.032.965 10.741 1.006 11.11.022.203.106.395.241.548.039.045.312.352.775.781l-.938 23.441c-.032.812.272 1.613.834 2.198s1.352.922 2.164.922c2.177 0 4.032-1.556 4.411-3.7l1.648-9.339 2.218 9.427c.5 2.126 2.376 3.612 4.561 3.612.812 0 1.601-.336 2.164-.922.562-.585.866-1.386.834-2.198l-.88-22.017c4.264-.622 4.962-3.228 4.962-4.863zm-13.981-17.723.339-3.26c.094-.902.531-1.712 1.231-2.279.688-.558 1.552-.812 2.427-.72 1.827.194 3.157 1.855 2.964 3.705l-.339 3.259c-.094.903-.531 1.712-1.231 2.279-.689.557-1.55.812-2.427.72-1.827-.194-3.156-1.856-2.964-3.704zm-1.127 3.32c.849 1.287 2.24 2.199 3.881 2.373.19.02.379.03.568.03 1.208 0 2.373-.411 3.328-1.185.347-.281.637-.609.899-.957 2.874 1.406 4.432 4.19 4.432 5.142v9c0 .742 0 3-5 3-.837 0-1.568-.003-2.254-.011-.541-1.03-1.893-1.558-3.221-2.066-.352-.135-.711-.273-1.064-.42 1.14-.504 4.26-.503 7.08-.503h.459c.552 0 1-.448 1-1v-6c0-.552-.448-1-1-1s-1 .448-1 1v5c-4.212.001-7.273.062-8.452 1.44-.135-.107-.277-.212-.388-.323-.17-.549-.688-2.428-1.168-6.242-.068-.548-.571-.932-1.117-.867-.548.069-.936.569-.867 1.117.128 1.018.888 6.463 1.524 7.179 2.059 2.318 6.457 2.827 6.468 3.696 0 .602 0 1-3 1-3.406 0-6.269-2.655-7.042-3.442-.18-1.64-.958-8.849-.958-10.558 0-2.326 2.682-4.406 6.892-5.403zm9.026 41.363c.011.271-.091.538-.278.733-.188.195-.451.307-.722.307-1.252 0-2.327-.851-2.613-2.07l-3.332-14.159c-.109-.462-.538-.808-1.002-.771-.474.013-.874.358-.957.826l-2.493 14.126c-.208 1.187-1.234 2.048-2.439 2.048-.271 0-.534-.112-.721-.307-.188-.195-.289-.463-.278-.733l.88-21.989c1.546 1.037 3.647 2.029 6.037 2.029 2.675 0 4.384-.365 4.854-2.007.653.006 1.362.007 2.146.007.014 0 .026-.001.041-.001z"/><path d="m49.707 37.293c-.212-.212-.504-.318-.806-.288-.298.029-.567.191-.733.44l-1.323 1.985-3.138-3.137c-.391-.391-1.023-.391-1.414 0s-.391 1.023 0 1.414l4 4c.212.212.504.319.806.288.298-.029.567-.191.733-.44l1.323-1.985 3.138 3.137c.195.195.451.293.707.293s.512-.098.707-.293c.391-.391.391-1.023 0-1.414z"/><path d="m17.293 36.293-3.138 3.137-1.323-1.985c-.166-.25-.436-.411-.733-.44-.299-.031-.593.077-.806.288l-4 4c-.391.391-.391 1.023 0 1.414.195.195.451.293.707.293s.512-.098.707-.293l3.138-3.137 1.323 1.985c.166.25.436.411.733.44.3.031.594-.076.806-.288l4-4c.391-.391.391-1.023 0-1.414s-1.023-.391-1.414 0z"/><path d="m47.001 19c.15 0 .304-.034.448-.106l5.139-2.579c.27-.135.464-.385.528-.68s-.008-.603-.197-.839l-1.505-1.877 4.034-2.024c.494-.248.693-.849.446-1.342-.248-.494-.849-.694-1.342-.446l-5.139 2.579c-.27.135-.464.385-.529.68s.008.603.197.839l1.505 1.877-4.034 2.025c-.494.248-.693.849-.445 1.342.175.349.527.551.894.551z"/><path d="m8.552 10.894 4.034 2.024-1.505 1.877c-.189.236-.261.544-.197.839s.259.545.528.68l5.139 2.579c.144.073.298.107.448.107.367 0 .719-.202.895-.551.248-.494.049-1.095-.445-1.342l-4.034-2.025 1.505-1.877c.189-.236.261-.544.197-.839s-.259-.545-.529-.68l-5.14-2.58c-.494-.248-1.094-.048-1.342.446-.248.493-.048 1.094.446 1.342z"/><path d="m58 25h-6c-.347 0-.668.18-.851.474-.182.295-.199.663-.044.973l1.277 2.553h-4.382c-.552 0-1 .448-1 1s.448 1 1 1h6c.347 0 .668-.18.851-.474.182-.295.199-.663.044-.973l-1.277-2.553h4.382c.552 0 1-.448 1-1s-.448-1-1-1z"/><path d="m9.105 29.553c-.155.31-.138.678.044.973.183.294.504.474.851.474h6c.552 0 1-.448 1-1s-.448-1-1-1h-4.382l1.276-2.553c.155-.31.138-.678-.044-.973-.182-.294-.503-.474-.85-.474h-6c-.552 0-1 .448-1 1s.448 1 1 1h4.382z"/></g></svg>