<svg id="Layer_1" enable-background="new 0 0 128 128" height="512" viewBox="0 0 128 128" width="512" xmlns="http://www.w3.org/2000/svg"><g><path d="m10.2 78.3v39.1c0 1 .8 1.7 1.8 1.8h50c1 0 1.7-.8 1.8-1.8v-39.1c0-9.5-5.6-18.1-14.3-21.9 3.8-3.5 6-8.4 6-13.6v-4.3c.5.1 1 .1 1.4.2.9 0 1.6-.6 1.8-1.5 0-.2 3.6-22.8-17.2-27.8-6-1.4-12.3-.5-17.5 2.6-6.6 4.1-12.9 12.9-5.9 31.5.1.3.3.5.5.7.3 4.7 2.4 9.1 5.9 12.2-8.7 3.9-14.3 12.5-14.3 21.9zm3.5 10.3h4.5v27.1h-4.5zm38.5 19.2v8h-13.5v-8zm-17 7.9h-13.5v-8h13.5zm20.5 0v-27.1h4.5v27.1zm-29.8-100.7c4.5-2.8 9.7-3.3 14.7-2.1 14.7 3.5 15 17.3 14.7 22.1-6.1-1.2-22-6.9-27.8-9.1-1.1-.4-2.2.3-2.4 1.4-.5 4.5-3 9.1-4.8 11.8-3.5-11.3-1.6-19.6 5.6-24.1zm-3.9 27.8c2.8-3.8 4.9-8.2 6.1-12.8 4.8 1.8 16.4 6 23.6 7.9v5.1c0 8.2-6.7 14.9-14.9 14.9-7.4-.1-14.8-5.8-14.8-15.1zm18.7 18.1-3.8 5.1-3.8-5.1c2.6.5 5.1.5 7.6 0zm-13.3-1.8 8.1 10.9c.7.9 2.1.9 2.8 0l8.1-10.9c8.2 2.8 13.7 10.6 13.8 19.3v6.7h-4.5v-4.7c0-1-.8-1.8-1.8-1.8s-1.8.8-1.8 1.8v23.9h-30.4c0-5.9 0-18 0-23.9 0-1-.8-1.8-1.8-1.8s-1.8.8-1.8 1.8v4.7h-4.5v-6.7c.1-8.7 5.6-16.5 13.8-19.3z"/><path d="m31.4 42.9c1 0 1.8-.8 1.8-1.7v-2.4c0-1-.8-1.8-1.8-1.8s-1.8.8-1.8 1.8v2.4c.1.9.8 1.7 1.8 1.7z"/><path d="m42.5 42.9c1 0 1.8-.8 1.8-1.8v-2.4c0-1-.8-1.8-1.8-1.8s-1.8.8-1.8 1.8v2.4c0 1 .8 1.8 1.8 1.8z"/><path d="m33.2 52.5c.9 1.1 2.2 1.7 3.6 1.8 1.4-.1 2.8-.7 3.8-1.6.7-.6.8-1.7.2-2.5-.6-.7-1.7-.8-2.5-.2-1.5 1.3-2 .8-2.6.1-.7-.7-1.8-.8-2.5-.1s-.7 1.8 0 2.5z"/><path d="m66.2 81.1v36.3c0 1 .8 1.7 1.8 1.8h48.1c1 0 1.7-.8 1.8-1.8v-41.7c0-2.7-.6-5.4-1.7-7.9.7-.3 1.1-.9 1.1-1.6 0-24 0 31 0-29.9 0-.7-1.6-23.8-25.1-25.6-.1 0-.2 0-.3 0-23.4 1.8-25.1 24.7-25.1 25.6v29.9c0 .7.4 1.3 1 1.6-1.1 2.5-1.7 5.2-1.7 7.9v5.4zm7.6 34.6 3.1-11.6h30.2l3.2 11.6zm3.5-18.6h29.3v3.5h-29.3zm31.7-13c-.5.3-.7.9-.7 1.4v8.1h-32.6v-8.1c0-.6-.3-1.1-.7-1.4l-5.3-3.8v-4.5c0-7.1 4.7-13.4 11.5-15.4.4 2.6 1.5 4.9 3.1 7 3.9 5.1 11.5 5.1 15.5 0 1.6-2.1 2.7-4.4 3.1-7 3.7 1.1 6.9 3.5 8.9 6.8 1.6 2.6 2.5 5.6 2.5 8.6v4.5zm-23.8-22.2c4.4 1.7 9.3 1.7 13.7 0-.4 1.2-1.1 2.2-1.8 3.2-2.6 3.4-7.5 3.4-10.1 0-.7-1-1.4-2-1.8-3.2zm20.1-4.4c3.2-3.4 5.1-8 5.1-12.7v-6.7h3.3v25.7c-2.1-2.8-5-5-8.4-6.3zm1.6-12.7c0 8-6.5 14.9-14.9 14.9-8.3 0-14.9-6.8-14.9-14.9v-7c6.3-1.3 11.8-5.2 14.9-10.8 3.2 5.6 8.6 9.5 14.9 10.8zm-33.2-6.7v6.7c0 4.7 1.8 9.2 5 12.7-3.3 1.3-6.2 3.4-8.4 6.2v-25.6zm-4 46.5 2.5 1.8v8.9c0 .9.7 1.7 1.6 1.7v5l-3.6 13.6h-.5zm44.2 31.1-3.7-13.6v-5c.9-.1 1.6-.8 1.6-1.7v-8.9l2.5-1.8v31.1h-.4zm-21.9-101.5c16.8 1.4 20.6 15.3 21.5 20.4h-4.7c-12.4-2.4-15-12.1-15.1-12.5-.4-1.8-3-1.8-3.4 0 0 .1-2.6 10.1-15.1 12.5h-4.7c.9-5.1 4.7-19 21.5-20.4z"/><path d="m88.2 38.7c0-1-.8-1.8-1.8-1.8s-1.8.8-1.8 1.8v2.4c0 1 .8 1.8 1.8 1.8s1.8-.8 1.8-1.8z"/><path d="m97.6 42.9c1 0 1.7-.8 1.8-1.7v-2.4c0-1-.8-1.8-1.8-1.8s-1.8.8-1.8 1.8v2.4c0 .9.8 1.7 1.8 1.7z"/><path d="m93.4 50c-1.5 1.3-2 .8-2.6.1-.7-.7-1.8-.8-2.5-.1s-.8 1.8-.1 2.5c.9 1.1 2.2 1.7 3.6 1.8 1.4-.1 2.8-.7 3.8-1.6.7-.6.8-1.7.1-2.5-.5-.7-1.6-.8-2.3-.2z"/></g></svg>