<svg height="512" viewBox="0 0 60 60" width="512" xmlns="http://www.w3.org/2000/svg"><g id="006---Emotions"><path id="Shape" d="m14 28c7.7319865 0 14-6.2680135 14-14s-6.2680135-14-14-14-14 6.2680135-14 14c.00826732 7.7285595 6.27144053 13.9917327 14 14zm0-26c6.627417 0 12 5.372583 12 12s-5.372583 12-12 12-12-5.372583-12-12c.00716485-6.62444695 5.37555305-11.99283515 12-12z"/><path id="Shape" d="m46 32c-7.7319865 0-14 6.2680135-14 14s6.2680135 14 14 14 14-6.2680135 14-14c-.0082673-7.7285595-6.2714405-13.9917327-14-14zm0 26c-6.627417 0-12-5.372583-12-12s5.372583-12 12-12 12 5.372583 12 12c-.0071648 6.624447-5.375553 11.9928352-12 12z"/><path id="Shape" d="m46 0c-7.7319865 0-14 6.2680135-14 14s6.2680135 14 14 14 14-6.2680135 14-14c-.0082673-7.72855947-6.2714405-13.99173268-14-14zm0 26c-6.627417 0-12-5.372583-12-12s5.372583-12 12-12 12 5.372583 12 12c-.0071648 6.624447-5.375553 11.9928352-12 12z"/><path id="Shape" d="m14 60c7.7319865 0 14-6.2680135 14-14s-6.2680135-14-14-14-14 6.2680135-14 14c.00826732 7.7285595 6.27144053 13.9917327 14 14zm0-26c6.627417 0 12 5.372583 12 12s-5.372583 12-12 12-12-5.372583-12-12c.00716485-6.624447 5.37555305-11.9928352 12-12z"/><path id="Shape" d="m41.5 15c1.8547459.0030316 3.3880739-1.4448378 3.4912957-3.2967116.1032218-1.8518739-1.259702-3.46117783-3.1032957-3.6642884.073443-.3414833.1109804-.68970974.112-1.039 0-.55228475-.4477153-1-1-1s-1 .44771525-1 1c0 1.65685425-1.3431458 3-3 3-.5522847 0-1 .4477153-1 1s.4477153 1 1 1c.3492903-.0010196.6975167-.038557 1.039-.112.1938635 1.7668158 1.6835893 3.1063207 3.461 3.112zm-.6-4.871c.1887527-.0845636.3931708-.1285135.6-.129.6066934 0 1.1536478.3654633 1.3858193.9259749.2321715.5605115.1038379 1.2056883-.3251591 1.6346853s-1.0741738.5573306-1.6346853.3251591c-.5605116-.2321715-.9259749-.7791259-.9259749-1.3858193.0006052-.2068165.0445499-.4112102.129-.6.06-.047.1-.111.161-.161.1564382-.1379381.3040619-.2855618.442-.442.051-.062.116-.107.168-.168z"/><path id="Shape" d="m8.5 47c1.7377641-.0049219 3.2077933-1.2861909 3.45-3.007.016 0 .033.007.049.007.4494307.0003074.8438561-.2992511.9641796-.7322756.1203235-.4330246-.0630173-.8931255-.4481796-1.1247244l-5-3c-.47332243-.2843303-1.08751541-.1312297-1.372.342-.24668182.4179724-.15251122.9533025.222 1.262-1.18789636.9102589-1.66225518 2.4771558-1.17868811 3.8934297.48356707 1.416274 1.81714901 2.3658746 3.31368811 2.3595703zm0-2c-.8284271.0303756-1.52462428-.6165729-1.55499994-1.445s.61657284-1.5246243 1.44499994-1.555l1.481.89c.08669401.1915835.13071.3997213.129.61 0 .8284271-.67157288 1.5-1.5 1.5z"/><path id="Path" d="m7 12c0-1.1045695.8954305-2 2-2s2 .8954305 2 2c0 .5522847.4477153 1 1 1s1-.4477153 1-1c0-2.209139-1.790861-4-4-4s-4 1.790861-4 4c0 .5522847.44771525 1 1 1s1-.4477153 1-1z"/><path id="Path" d="m16 13c.5522847 0 1-.4477153 1-1 0-1.1045695.8954305-2 2-2s2 .8954305 2 2c0 .5522847.4477153 1 1 1s1-.4477153 1-1c0-2.209139-1.790861-4-4-4s-4 1.790861-4 4c0 .5522847.4477153 1 1 1z"/><path id="Path" d="m8.769 17.36c-.22864998-.2747372-.58650184-.4066216-.93875626-.3459735-.35225442.060648-.64539556.3046147-.769.64s-.05889372.7112363.16975626.9859735c1.63442705 2.0831759 4.1215133 3.3177172 6.769 3.36 2.6474867-.0422828 5.134573-1.2768241 6.769-3.36.22865-.2747372.2933607-.6505882.1697563-.9859735-.1236045-.3353853-.4167456-.579352-.769-.64-.3522545-.0606481-.7101063.0712363-.9387563.3459735-1.2570594 1.6229331-3.1787138 2.5927606-5.231 2.64-2.0522862-.0472394-3.9739406-1.0170669-5.231-2.64z"/><path id="Path" d="m53 43c0 1.1045695-.8954305 2-2 2s-2-.8954305-2-2c0-.5522847-.4477153-1-1-1s-1 .4477153-1 1c0 2.209139 1.790861 4 4 4s4-1.790861 4-4c0-.5522847-.4477153-1-1-1s-1 .4477153-1 1z"/><path id="Path" d="m45 43c0-.5522847-.4477153-1-1-1s-1 .4477153-1 1c0 1.1045695-.8954305 2-2 2s-2-.8954305-2-2c0-.5522847-.4477153-1-1-1s-1 .4477153-1 1c0 2.209139 1.790861 4 4 4s4-1.790861 4-4z"/><path id="Path" d="m46 16c-2.6474867.0422828-5.134573 1.2768241-6.769 3.36-.3534622.424707-.295707 1.0555378.129 1.409s1.0555378.295707 1.409-.129c1.2252903-1.6612132 3.1667893-2.6416793 5.231-2.6416793s4.0057097.9804661 5.231 2.6416793c.22865.2747372.5865018.4066216.9387563.3459735.3522544-.060648.6453955-.3046147.769-.64.1236044-.3353853.0588937-.7112363-.1697563-.9859735-1.634427-2.0831759-4.1215133-3.3177172-6.769-3.36z"/><path id="Path" d="m47.505 20.424c-.9243406-.563049-2.0856594-.563049-3.01 0-.4678287.2828495-.621807.888963-.3457012 1.3608032.2761057.4718401.8799468.6345019 1.3557012.3651968.299053-.202114.690947-.202114.99 0 .3086578.1866147.693893.1925525 1.0081556.0155392s.5088495-.5095451.5092315-.8702313-.1935002-.6936293-.5073871-.8713079z"/><path id="Shape" d="m52 7c0-.55228475-.4477153-1-1-1s-1 .44771525-1 1c.0010196.34929026.038557.6975167.112 1.039-1.8191981.19845741-3.1763895 1.7680375-3.1101211 3.5968282.0662683 1.8287908 1.5335021 3.2960246 3.3622929 3.3622929 1.8287907.0662684 3.3983708-1.290923 3.5968282-3.1101211.3414833.073443.6897097.1109804 1.039.112.5522847 0 1-.4477153 1-1s-.4477153-1-1-1c-1.6568542 0-3-1.34314575-3-3zm-.129 3.9c.0844501.1887898.1283948.3931835.129.6 0 .8284271-.6715729 1.5-1.5 1.5s-1.5-.6715729-1.5-1.5.6715729-1.5 1.5-1.5c.2068292.0004865.4112473.0444364.6.129.048.061.113.106.164.164.1379381.1564382.2855618.3040619.442.442.061.05.105.114.165.165z"/><path id="Shape" d="m16 44c.016 0 .033-.006.049-.007.2157839 1.5622062 1.4521245 2.7857543 3.0164905 2.9852787 1.5643659.1995244 3.0682414-.6745275 3.6692364-2.1325589.6009951-1.4580315.1498505-3.1379352-1.1007269-4.0987198.3745112-.3086975.4686818-.8440276.222-1.262-.2844846-.4732297-.8986776-.6263303-1.372-.342l-5 3c-.3851623.2315989-.5685031.6916998-.4481796 1.1247244.1203235.4330245.5147489.732583.9641796.7322756zm3.5 1c-.8284271 0-1.5-.6715729-1.5-1.5-.0014203-.2096053.0425892-.4170299.129-.608l1.478-.892c.8284271.0295472 1.4760472.7250729 1.4465 1.5535s-.7250729 1.4760472-1.5535 1.4465z"/><path id="Path" d="m10.781 51.375c-.345178-.4313344-.97466561-.501178-1.406-.156s-.50117797.9746656-.156 1.406c.66219558.8661571 1.6902105 1.3742484 2.7805 1.3742484s2.1183044-.5080913 2.7805-1.3742484c.2896824-.3813998.7410619-.6053803 1.22-.6053803s.9303176.2239805 1.22.6053803c.3507413.4107536.9642746.4687577 1.3857798.1310132.4215051-.3377446.4986385-.9491675.1742202-1.3810132-.6621956-.8661571-1.6902105-1.3742484-2.7805-1.3742484s-2.1183044.5080913-2.7805 1.3742484c-.2892685.3813618-.7403424.6053709-1.219.6053709s-.9297315-.2240091-1.219-.6053709z"/><path id="Path" d="m51 50h-10c-.5522847 0-1 .4477153-1 1s.4477153 1 1 1h10c.5522847 0 1-.4477153 1-1s-.4477153-1-1-1z"/></g></svg>