<svg version="1.1" id="Capa_1" xmlns="http://www.w3.org/2000/svg" xmlns:xlink="http://www.w3.org/1999/xlink" x="0px" y="0px" viewBox="0 0 512 512" style="enable-background:new 0 0 512 512;" xml:space="preserve">
<g>
	<path style="fill:none;stroke:#000000;stroke-width:15;stroke-linecap:round;stroke-linejoin:round;stroke-miterlimit:10;" d="&#10;&#9;&#9;M127.357,47.835c-24.729,17.241-45.837,39.316-61.953,64.857h55.567c10.984,0,21.026-6.206,25.938-16.031l7.407-14.814&#10;&#9;&#9;c1.684-3.367,4.414-6.098,7.781-7.781l23.687-11.843c4.543-2.272,7.867-6.415,9.099-11.343l9.35-37.401&#10;&#9;&#9;c-16.257,3.824-31.835,9.41-46.521,16.545"/>
	<path style="fill:none;stroke:#000000;stroke-width:15;stroke-linecap:round;stroke-linejoin:round;stroke-miterlimit:10;" d="&#10;&#9;&#9;M325.057,41.125h-24.145c-2.263,0-4.495,0.527-6.52,1.539l-22.488,11.244c-4.939,2.47-8.059,7.517-8.059,13.04v21.922&#10;&#9;&#9;c0,11.648,7.454,21.99,18.504,25.673l26.204,8.735c3.668,1.223,7.672,0.938,11.13-0.791l22.822-11.411&#10;&#9;&#9;c3.458-1.729,7.462-2.014,11.13-0.791l38.98,12.993c3.668,1.223,6.7,3.853,8.429,7.311l10.082,20.165&#10;&#9;&#9;c2.47,4.939,7.518,8.059,13.04,8.059h0c4.874,0,9.426,2.436,12.13,6.492l44.905,67.358&#10;&#9;&#9;c-0.017-92.357-55.629-171.723-135.191-206.453l-10.646,10.646C332.631,39.589,328.923,41.125,325.057,41.125z"/>
	<path style="fill:none;stroke:#000000;stroke-width:15;stroke-linecap:round;stroke-linejoin:round;stroke-miterlimit:10;" d="&#10;&#9;&#9;M427.282,430.048c-10.654-6.535-17.758-18.364-17.593-31.671c0.042-3.389,0.545-6.667,1.45-9.775&#10;&#9;&#9;c1.579-5.424-0.037-11.279-4.032-15.274l-6.709-6.709"/>
	<path style="fill:none;stroke:#000000;stroke-width:15;stroke-linecap:round;stroke-linejoin:round;stroke-miterlimit:10;" d="&#10;&#9;&#9;M7.5,436.655v23.411c0,2.761,2.239,5,5,5l24.114,0c4.649,0,9.103,1.736,12.626,4.769c10.769,9.27,24.784,14.874,40.108,14.874&#10;&#9;&#9;h48.028c2.922,0,5.794,0.769,8.324,2.231l26.812,15.48c7.421,4.284,16.909,1.742,21.194-5.679v0&#10;&#9;&#9;c4.284-7.421,1.742-16.909-5.679-21.194l-33.241-19.191l52.321,14.019c8.277,2.218,16.784-2.694,19.002-10.971&#10;&#9;&#9;c2.218-8.277-2.694-16.784-10.971-19.002l-66.255-17.753h76.07c8.569,0,15.515-6.946,15.515-15.515&#10;&#9;&#9;c0-8.569-6.946-15.515-15.515-15.515l-75.977,0l66.162-17.728c8.277-2.218,13.188-10.725,10.971-19.002&#10;&#9;&#9;c-2.218-8.277-10.725-13.188-19.002-10.971l-94.822,25.408c-0.562,0.151-1.155-0.095-1.446-0.599&#10;&#9;&#9;c-0.291-0.504-0.207-1.14,0.204-1.552l19.286-19.286c9.666-9.667,9.666-25.339,0-35.005v0c-5.347-5.347-14.016-5.347-19.362,0&#10;&#9;&#9;l-44.686,44.687c0,0-8.142,8.795-15.916,17.192c-3.66,3.953-8.802,6.2-14.189,6.2l-23.677,0c-2.761,0-5,2.239-5,5v14.692"/>
	<path style="fill:none;stroke:#000000;stroke-width:15;stroke-linecap:round;stroke-linejoin:round;stroke-miterlimit:10;" d="&#10;&#9;&#9;M504.5,385.963c0-2.761-2.239-5-5-5l-23.677,0c-5.387,0-10.53-2.247-14.189-6.2c-7.774-8.397-15.916-17.192-15.916-17.192&#10;&#9;&#9;l-44.687-44.687c-5.347-5.347-14.015-5.347-19.362,0v0c-9.666,9.666-9.666,25.339,0,35.005l19.286,19.286&#10;&#9;&#9;c0.411,0.411,0.495,1.048,0.204,1.552c-0.291,0.504-0.884,0.75-1.446,0.599l-94.822-25.408&#10;&#9;&#9;c-8.277-2.218-16.784,2.694-19.002,10.971c-2.218,8.277,2.694,16.784,10.97,19.002l66.162,17.728l-75.977,0&#10;&#9;&#9;c-8.569,0-15.515,6.946-15.515,15.515c0,8.569,6.946,15.515,15.515,15.515h76.07l-66.255,17.753&#10;&#9;&#9;c-8.277,2.218-13.188,10.725-10.971,19.002c2.218,8.277,10.725,13.188,19.002,10.971l52.321-14.019l-33.241,19.191&#10;&#9;&#9;c-7.421,4.284-9.963,13.773-5.679,21.194v0c4.284,7.421,13.773,9.963,21.194,5.679l26.812-15.48&#10;&#9;&#9;c2.531-1.461,5.402-2.231,8.324-2.231h48.028c15.324,0,29.339-5.604,40.108-14.874c3.524-3.033,7.977-4.769,12.626-4.769l24.114,0&#10;&#9;&#9;c2.761,0,5-2.239,5-5V385.963z"/>
	<path style="fill:none;stroke:#000000;stroke-width:15;stroke-linecap:round;stroke-linejoin:round;stroke-miterlimit:10;" d="&#10;&#9;&#9;M309.168,344.03l30.31-30.31c2.446-2.446,3.82-5.763,3.82-9.222v-20.73c0-2.575,0.762-5.092,2.19-7.235l25.7-38.55&#10;&#9;&#9;c1.428-2.143,2.19-4.66,2.19-7.235v-13.09c0-7.203-5.839-13.042-13.042-13.042h-7.638c-5.614,0-10.598-3.592-12.373-8.918&#10;&#9;&#9;l-6.55-19.649c-3.295-9.886-12.547-16.554-22.968-16.554h-69.714c-2.025,0-4.022-0.471-5.833-1.377l-18.919-9.46&#10;&#9;&#9;c-5.021-2.51-11.085-1.526-15.055,2.443l-34.654,34.654c-2.446,2.446-3.82,5.763-3.82,9.222v30.55&#10;&#9;&#9;c0,13.371,10.839,24.21,24.21,24.21h41.592c5.614,0,10.598,3.592,12.373,8.918l11.399,34.196c0.443,1.33,0.669,2.722,0.669,4.124&#10;&#9;&#9;v25.848c0,1.402,0.226,2.795,0.669,4.124l9.616,28.847c2.51,7.529,11.107,11.09,18.206,7.541l3.072-1.536"/>
	<path style="fill:none;stroke:#000000;stroke-width:15;stroke-linecap:round;stroke-linejoin:round;stroke-miterlimit:10;" d="&#10;&#9;&#9;M118.553,308.023v-2.607c0-5.917-3.343-11.327-8.636-13.973l-10.54-5.27c-2.551-1.276-4.62-3.344-5.895-5.895l-14.965-29.93&#10;&#9;&#9;c-2.646-5.293-8.056-8.636-13.973-8.636H30.974c1.645,41.816,14.692,80.702,36.118,113.636"/>
	<path style="fill:none;stroke:#000000;stroke-width:15;stroke-linecap:round;stroke-linejoin:round;stroke-miterlimit:10;" d="&#10;&#9;&#9;M227.624,456.135c9.294,1.169,18.765,1.771,28.376,1.771s19.082-0.602,28.376-1.771"/>
	<path style="fill:none;stroke:#000000;stroke-width:15;stroke-linecap:round;stroke-linejoin:round;stroke-miterlimit:10;" d="&#10;&#9;&#9;M65.404,112.692c-21.922,34.742-34.607,75.895-34.607,120.011c0,3.017,0.06,6.02,0.177,9.008"/>
	<path style="fill:none;stroke:#000000;stroke-width:15;stroke-linecap:round;stroke-linejoin:round;stroke-miterlimit:10;" d="&#10;&#9;&#9;M479.225,262.685c1.305-9.809,1.978-19.817,1.978-29.982"/>
	<path style="fill:none;stroke:#000000;stroke-width:15;stroke-linecap:round;stroke-linejoin:round;stroke-miterlimit:10;" d="&#10;&#9;&#9;M444.909,355.348c11.561-17.771,20.682-37.275,26.89-58.037"/>
	<path style="fill:none;stroke:#000000;stroke-width:15;stroke-linecap:round;stroke-linejoin:round;stroke-miterlimit:10;" d="&#10;&#9;&#9;M346.012,26.209C318.444,14.175,288.002,7.5,256,7.5c-17.814,0-35.145,2.069-51.766,5.978"/>
</g>
<g>
</g>
<g>
</g>
<g>
</g>
<g>
</g>
<g>
</g>
<g>
</g>
<g>
</g>
<g>
</g>
<g>
</g>
<g>
</g>
<g>
</g>
<g>
</g>
<g>
</g>
<g>
</g>
<g>
</g>
</svg>