<svg fill="none" height="512" viewBox="0 0 100 100" width="512" xmlns="http://www.w3.org/2000/svg"><path clip-rule="evenodd" d="m6.5 29.5c0-13.2548 10.7452-24 24-24s24 10.7452 24 24c0 11.1005-7.5348 20.4379-17.7679 23.1825v5.0854h2.7322c3.5898 0 6.5 2.9101 6.5 6.5 0 3.5898-2.9102 6.5-6.5 6.5h-2.7322v1.8928c0 3.5899-2.9101 6.5-6.5 6.5-3.5898 0-6.5-2.9101-6.5-6.5v-1.8928h-2.7321c-3.5898 0-6.5-2.9102-6.5-6.5 0-3.5899 2.9102-6.5 6.5-6.5h2.7321v-5.2358c-9.9589-2.922-17.2321-12.126-17.2321-23.0321zm24-21c-11.598 0-21 9.402-21 21 0 9.9028 6.856 18.2081 16.082 20.4213l1.1501.2759v10.5707h-5.7321c-1.933 0-3.5 1.567-3.5 3.5s1.567 3.5 3.5 3.5h5.7321v4.8928c0 1.933 1.567 3.5 3.5 3.5s3.5-1.567 3.5-3.5v-4.8928h5.7322c1.933 0 3.5-1.567 3.5-3.5s-1.567-3.5-3.5-3.5h-5.7322v-10.4793l1.1861-.2539c9.4768-2.0285 16.5818-10.4536 16.5818-20.5347 0-11.598-9.402-21-21-21zm-14 21c0-7.732 6.268-14 14-14s14 6.268 14 14-6.268 14-14 14-14-6.268-14-14zm14-11c-6.0751 0-11 4.9249-11 11s4.9249 11 11 11 11-4.9249 11-11-4.9249-11-11-11zm33.7825 8.0251c3.71-3.7099 9.725-3.71 13.435 0l8.8787 8.8787c2.5384 2.5384 2.5384 6.654 0 9.1924-2.5066 2.5066-6.5511 2.538-9.0962.0943v1.8468c9.8395 2.996 17 12.1414 17 22.9627 0 13.2548-10.7452 24-24 24s-24-10.7452-24-24c0-11.1842 7.6488-20.5787 18-23.2435v-1.566c-2.5451 2.4437-6.5896 2.4123-9.0962-.0943-2.5384-2.5384-2.5384-6.654 0-9.1924zm11.3137 2.1213c-2.5384-2.5384-6.654-2.5384-9.1924.0001l-8.8787 8.8786c-1.3668 1.3669-1.3668 3.5829 0 4.9498 1.3669 1.3668 3.5829 1.3668 4.9498 0l5.0251-5.0252v11.2265l-1.2016.2439c-9.5848 1.9456-16.7984 10.422-16.7984 20.5799 0 11.598 9.402 21 21 21s21-9.402 21-21c0-9.8251-6.7487-18.0777-15.8655-20.3681l-1.1345-.2851v-11.397l5.0251 5.0251c1.3669 1.3668 3.5829 1.3668 4.9498 0 1.3668-1.3669 1.3668-3.5829 0-4.9498zm-5.2815 26.8542.1331.021c.179.0283.3633.0431.5522.0431.1199 0 .238-.006.354-.0176l.1339-.0134.134.0107c7.2082.5724 12.8781 6.6011 12.8781 13.9556 0 7.732-6.268 14-14 14s-14-6.268-14-14c0-7.625 6.0955-13.826 13.6801-13.9964zm-.1888 3.0056c-5.9015.1969-10.6259 5.0438-10.6259 10.9938 0 6.0751 4.9249 11 11 11s11-4.9249 11-11c0-5.736-4.3914-10.4478-9.9946-10.9548-.167.0129-.3356.0195-.5054.0195-.2957 0-.5875-.0199-.8741-.0585z" fill="rgb(0,0,0)" fill-rule="evenodd"/></svg>