<svg fill="none" height="64" viewBox="0 0 64 64" width="64" xmlns="http://www.w3.org/2000/svg"><g fill="rgb(0,0,0)"><path d="m31.9978 25c1.1046 0 2 .8954 2 2v12c0 1.1046-.8954 2-2 2s-2-.8954-2-2v-12c0-1.1046.8954-2 2-2z"/><path d="m31.9978 46c1.1046 0 2-.8954 2-2s-.8954-2-2-2-2 .8954-2 2 .8954 2 2 2z"/><path clip-rule="evenodd" d="m24.1603 10.3762c3.6435-5.83491 12.0315-5.83493 15.675 0l20.7091 33.1638c3.88 6.2135-.4563 14.46-7.8375 14.46h-41.4182c-7.3812 0-11.71744-8.2465-7.8375-14.4599zm12.2822 2.1186c-2.0771-3.3264-6.8122-3.3264-8.8894 0l-20.70906 33.1639c-2.28756 3.6634.33818 8.3413 4.44466 8.3413h41.4182c4.1065 0 6.7322-4.678 4.4447-8.3413z" fill-rule="evenodd"/></g></svg>