<svg version="1.1" id="Capa_1" xmlns="http://www.w3.org/2000/svg" xmlns:xlink="http://www.w3.org/1999/xlink" x="0px" y="0px" viewBox="0 0 512 512" style="enable-background:new 0 0 512 512;" xml:space="preserve">
<g>
	
		<polyline style="fill:none;stroke:#000000;stroke-width:15;stroke-linecap:round;stroke-linejoin:round;stroke-miterlimit:10;" points="&#10;&#9;&#9;29.425,214.152 18.462,225.115 7.5,214.152 &#9;"/>
	<path style="fill:none;stroke:#000000;stroke-width:15;stroke-linecap:round;stroke-linejoin:round;stroke-miterlimit:10;" d="&#10;&#9;&#9;M18.462,221.156c0-109.412,70.904-154.653,145.73-158.248"/>
	
		<polyline style="fill:none;stroke:#000000;stroke-width:15;stroke-linecap:round;stroke-linejoin:round;stroke-miterlimit:10;" points="&#10;&#9;&#9;442.767,335.118 453.73,324.156 464.692,335.118 &#9;"/>
	<path style="fill:none;stroke:#000000;stroke-width:15;stroke-linecap:round;stroke-linejoin:round;stroke-miterlimit:10;" d="&#10;&#9;&#9;M453.73,328.114c0,109.412-70.904,154.653-145.73,158.248"/>
	<path style="fill:none;stroke:#000000;stroke-width:15;stroke-linecap:round;stroke-linejoin:round;stroke-miterlimit:10;" d="&#10;&#9;&#9;M430.188,245.817c1.791,0.432,3.436,1.481,4.594,3.06l5.691,7.76c2.909,3.966,8.669,4.407,12.147,0.928l29.182-29.182&#10;&#9;&#9;c3.478-3.478,3.038-9.238-0.929-12.147l-7.76-5.691c-3.158-2.316-4.197-6.579-2.419-10.068c2.435-4.779,4.516-9.77,6.205-14.938&#10;&#9;&#9;c1.226-3.75,4.957-6.082,8.856-5.483l9.499,1.461c4.861,0.748,9.246-3.014,9.246-7.932v-41.27c0-4.919-4.384-8.68-9.246-7.932&#10;&#9;&#9;l-9.499,1.461c-3.899,0.6-7.631-1.733-8.856-5.483c-1.689-5.168-3.769-10.158-6.205-14.938c-1.778-3.489-0.739-7.752,2.419-10.068&#10;&#9;&#9;l7.76-5.691c3.966-2.909,4.406-8.669,0.929-12.147L452.62,48.335c-3.478-3.478-9.238-3.038-12.147,0.929l-5.691,7.76&#10;&#9;&#9;c-2.316,3.158-6.579,4.197-10.068,2.419c-4.779-2.435-9.77-4.516-14.938-6.204c-3.75-1.226-6.082-4.957-5.483-8.856l1.461-9.499&#10;&#9;&#9;c0.748-4.861-3.014-9.245-7.932-9.245h-41.27c-4.919,0-8.68,4.384-7.932,9.245l1.461,9.499c0.6,3.899-1.733,7.631-5.483,8.856&#10;&#9;&#9;c-5.168,1.689-10.158,3.769-14.938,6.204c-3.489,1.778-7.752,0.739-10.068-2.419l-5.691-7.76&#10;&#9;&#9;c-2.909-3.966-8.669-4.407-12.147-0.929l-29.182,29.182c-3.478,3.478-3.038,9.238,0.928,12.147l7.76,5.691&#10;&#9;&#9;c3.158,2.316,4.197,6.579,2.419,10.068c-1.346,2.642-2.584,5.348-3.707,8.113 M333.501,133.038&#10;&#9;&#9;c7.565-16.57,24.28-28.086,43.686-28.086c26.509,0,47.998,21.489,47.998,47.998c0,21.957-14.743,40.47-34.87,46.181"/>
	<path style="fill:none;stroke:#000000;stroke-width:15;stroke-linecap:round;stroke-linejoin:round;stroke-miterlimit:10;" d="&#10;&#9;&#9;M158.669,145.208c7.42,6.817,12.07,16.601,12.07,27.471"/>
	<path style="fill:none;stroke:#000000;stroke-width:15;stroke-linecap:round;stroke-linejoin:round;stroke-miterlimit:10;" d="&#10;&#9;&#9;M75.207,255.016c3.663-1.202,7.575-1.852,11.64-1.852c7.724,0,14.9,2.348,20.852,6.37"/>
	<path style="fill:none;stroke:#000000;stroke-width:15;stroke-linecap:round;stroke-linejoin:round;stroke-miterlimit:10;" d="&#10;&#9;&#9;M86.847,327.755c-20.598,0-37.296-16.698-37.296-37.296c0-16.533,10.758-30.554,25.656-35.444"/>
	<path style="fill:none;stroke:#000000;stroke-width:15;stroke-linecap:round;stroke-linejoin:round;stroke-miterlimit:10;" d="&#10;&#9;&#9;M105.184,322.944c-5.415,3.063-11.672,4.811-18.337,4.811"/>
	<path style="fill:none;stroke:#000000;stroke-width:15;stroke-linecap:round;stroke-linejoin:round;stroke-miterlimit:10;" d="&#10;&#9;&#9;M95.122,391.727c3.962,1.434,8.236,2.215,12.692,2.215c2.676,0,5.284-0.288,7.801-0.823c-0.453,2.324-0.697,4.722-0.697,7.178&#10;&#9;&#9;c0,20.598,16.698,37.296,37.296,37.296c5.544,0,10.801-1.219,15.531-3.389c6.827,7.581,16.716,12.35,27.721,12.35&#10;&#9;&#9;c20.598,0,37.296-16.698,37.296-37.296c0-20.598,0-237.393,0-257.991s-16.698-37.296-37.296-37.296&#10;&#9;&#9;c-18.535,0-33.904,13.523-36.799,31.239c-6.64-6.101-15.495-9.828-25.223-9.828c-20.598,0-37.296,16.698-37.296,37.296&#10;&#9;&#9;c0,6.717,1.785,13.013,4.892,18.457c-20.457,0.164-36.992,16.792-36.992,37.288c0,10.418,4.276,19.834,11.164,26.601&#10;&#9;&#9;c-14.897,4.89-25.659,18.901-25.659,35.434c0,19.758,15.367,35.918,34.8,37.203c-8.436,6.838-13.833,17.279-13.833,28.984&#10;&#9;&#9;c0,3.462,0.472,6.814,1.354,9.995"/>
	<path style="fill:none;stroke:#000000;stroke-width:15;stroke-linecap:round;stroke-linejoin:round;stroke-miterlimit:10;" d="&#10;&#9;&#9;M306.853,145.208c-7.419,6.817-12.07,16.601-12.07,27.471"/>
	<path style="fill:none;stroke:#000000;stroke-width:15;stroke-linecap:round;stroke-linejoin:round;stroke-miterlimit:10;" d="&#10;&#9;&#9;M276.012,400.297c0,12.874,6.523,24.224,16.443,30.926"/>
	<path style="fill:none;stroke:#000000;stroke-width:15;stroke-linecap:round;stroke-linejoin:round;stroke-miterlimit:10;" d="&#10;&#9;&#9;M390.314,255.016c-3.663-1.202-7.575-1.852-11.64-1.852c-7.724,0-14.9,2.348-20.852,6.37"/>
	<path style="fill:none;stroke:#000000;stroke-width:15;stroke-linecap:round;stroke-linejoin:round;stroke-miterlimit:10;" d="&#10;&#9;&#9;M378.674,327.755c20.598,0,37.296-16.698,37.296-37.296c0-16.533-10.758-30.554-25.656-35.444"/>
	<path style="fill:none;stroke:#000000;stroke-width:15;stroke-linecap:round;stroke-linejoin:round;stroke-miterlimit:10;" d="&#10;&#9;&#9;M360.338,322.944c5.415,3.063,11.672,4.811,18.337,4.811"/>
	<path style="fill:none;stroke:#000000;stroke-width:15;stroke-linecap:round;stroke-linejoin:round;stroke-miterlimit:10;" d="&#10;&#9;&#9;M232.761,151.268c0-20.598,16.698-37.296,37.296-37.296c18.535,0,33.904,13.523,36.799,31.239&#10;&#9;&#9;c6.64-6.101,15.495-9.828,25.223-9.828c20.598,0,37.296,16.698,37.296,37.296c0,6.717-1.785,13.013-4.892,18.457&#10;&#9;&#9;c20.457,0.164,36.992,16.792,36.992,37.288c0,10.418-4.276,19.834-11.164,26.601c14.897,4.89,25.659,18.901,25.659,35.434&#10;&#9;&#9;c0,19.758-15.367,35.918-34.8,37.203c8.436,6.838,13.833,17.279,13.833,28.984c0,20.598-16.698,37.296-37.296,37.296&#10;&#9;&#9;c-2.676,0-5.284-0.288-7.801-0.823c0.453,2.324,0.697,4.722,0.697,7.178c0,20.598-16.698,37.296-37.296,37.296&#10;&#9;&#9;c-5.544,0-10.801-1.219-15.531-3.389c-6.827,7.581-16.716,12.35-27.721,12.35c-20.598,0-37.296-16.698-37.296-37.296&#10;&#9;&#9;C232.761,388.661,232.761,171.866,232.761,151.268z"/>
	<path style="fill:none;stroke:#000000;stroke-width:15;stroke-linecap:round;stroke-linejoin:round;stroke-miterlimit:10;" d="&#10;&#9;&#9;M151.351,240.619c0-14.749,11.956-26.705,26.705-26.705"/>
	<path style="fill:none;stroke:#000000;stroke-width:15;stroke-linecap:round;stroke-linejoin:round;stroke-miterlimit:10;" d="&#10;&#9;&#9;M158.669,326.483c0-14.749,11.956-26.705,26.705-26.705"/>
	<path style="fill:none;stroke:#000000;stroke-width:15;stroke-linecap:round;stroke-linejoin:round;stroke-miterlimit:10;" d="&#10;&#9;&#9;M302.557,326.483c0-14.749-11.956-26.705-26.705-26.705"/>
	<path style="fill:none;stroke:#000000;stroke-width:15;stroke-linecap:round;stroke-linejoin:round;stroke-miterlimit:10;" d="&#10;&#9;&#9;M312.992,240.619c0-14.749-11.956-26.705-26.705-26.705"/>
</g>
<g>
</g>
<g>
</g>
<g>
</g>
<g>
</g>
<g>
</g>
<g>
</g>
<g>
</g>
<g>
</g>
<g>
</g>
<g>
</g>
<g>
</g>
<g>
</g>
<g>
</g>
<g>
</g>
<g>
</g>
</svg>