<?xml version="1.0" encoding="UTF-8" standalone="no"?>
<!-- Created with Inkscape (http://www.inkscape.org/) -->

<svg
   version="1.1"
   id="svg951"
   xml:space="preserve"
   width="682.66669"
   height="682.66669"
   viewBox="0 0 682.66669 682.66669"
   xmlns="http://www.w3.org/2000/svg"
   xmlns:svg="http://www.w3.org/2000/svg"><defs
     id="defs955"><clipPath
       clipPathUnits="userSpaceOnUse"
       id="clipPath965"><path
         d="M 0,512 H 512 V 0 H 0 Z"
         id="path963" /></clipPath></defs><g
     id="g957"
     transform="matrix(1.3333333,0,0,-1.3333333,0,682.66667)"><g
       id="g959"><g
         id="g961"
         clip-path="url(#clipPath965)"><g
           id="g967"
           transform="translate(448.3872,286.21)"><path
             d="M 0,0 56.113,-40.081 0,-80.161"
             style="fill:none;stroke:#000000;stroke-width:15;stroke-linecap:round;stroke-linejoin:round;stroke-miterlimit:10;stroke-dasharray:none;stroke-opacity:1"
             id="path969" /></g><g
           id="g971"
           transform="translate(39.5645,246.1294)"><path
             d="m 0,0 c 0,-8.854 -7.178,-16.032 -16.032,-16.032 -8.855,0 -16.032,7.178 -16.032,16.032 0,8.854 7.177,16.032 16.032,16.032 C -7.178,16.032 0,8.854 0,0 Z"
             style="fill:none;stroke:#000000;stroke-width:15;stroke-linecap:round;stroke-linejoin:round;stroke-miterlimit:10;stroke-dasharray:none;stroke-opacity:1"
             id="path973" /></g><g
           id="g975"
           transform="translate(99.5137,243.176)"><path
             d="m 0,0 c -2.077,-78.646 89.841,-158.728 189.037,-139.288 86.617,16.975 56.149,125.791 1.958,121.439 -39.784,-3.196 -58.687,-47.256 -19.587,-69.207 37.216,-20.893 135.585,19.587 122.745,108.38 C 283.781,93.05 113.46,197.992 61.069,159.739 19.937,129.705 61.722,79.432 57.804,35.688 52.271,-26.104 6.878,-38.089 -3.568,-79.221 c -9.2,-36.226 54.191,-91.406 95.323,-23.505 C 134.568,-32.05 67.598,54.405 127.664,83.35 173.146,105.267 205.518,2.953 273.913,2.953 H 396.97"
             style="fill:none;stroke:#000000;stroke-width:15;stroke-linecap:round;stroke-linejoin:round;stroke-miterlimit:10;stroke-dasharray:none;stroke-opacity:1"
             id="path977" /></g><g
           id="g979"
           transform="translate(341.2217,293.0464)"><path
             d="m 0,0 c 42.569,26.598 66.714,58.759 52.227,80.27 -42.116,62.537 -248.139,-14.553 -284.663,-91.405 -1.158,-2.438 -2.203,-4.894 -3.137,-7.365"
             style="fill:none;stroke:#000000;stroke-width:15;stroke-linecap:round;stroke-linejoin:round;stroke-miterlimit:10;stroke-dasharray:none;stroke-opacity:1"
             id="path981" /></g><g
           id="g983"
           transform="translate(39.5645,246.1294)"><path
             d="m 0,0 h 141.911 c 44.513,0 89.838,12.127 127.412,29.512"
             style="fill:none;stroke:#000000;stroke-width:15;stroke-linecap:round;stroke-linejoin:round;stroke-miterlimit:10;stroke-dasharray:none;stroke-opacity:1"
             id="path985" /></g></g></g></g></svg>
